<svg width="10" height="10" viewBox="0 0 10 10" fill="none" xmlns="http://www.w3.org/2000/svg">
<path d="M9.73822 4.03141C9.91274 4.03141 10 4.11867 10 4.29319V5.70681C10 5.88133 9.91274 5.96859 9.73822 5.96859H6.0733C6.00349 5.96859 5.96859 6.00349 5.96859 6.0733V9.73822C5.96859 9.91274 5.88133 10 5.70681 10H4.29319C4.11867 10 4.03141 9.91274 4.03141 9.73822V6.0733C4.03141 6.00349 3.99651 5.96859 3.9267 5.96859H0.26178C0.08726 5.96859 0 5.88133 0 5.70681V4.29319C0 4.11867 0.08726 4.03141 0.26178 4.03141H3.9267C3.99651 4.03141 4.03141 3.99651 4.03141 3.9267V0.26178C4.03141 0.0872594 4.11867 0 4.29319 0H5.70681C5.88133 0 5.96859 0.0872594 5.96859 0.26178V3.9267C5.96859 3.99651 6.00349 4.03141 6.0733 4.03141H9.73822Z" fill="#1F5462"/>
</svg>
