<svg width="10" height="16" viewBox="0 0 10 16" fill="none" xmlns="http://www.w3.org/2000/svg">
<path d="M4.42915 0.833297C4.42891 0.833539 4.42863 0.833741 4.42839 0.834024L0.234836 5.0479C-0.0793171 5.36358 -0.078148 5.87419 0.237578 6.18842C0.553264 6.50261 1.06387 6.5014 1.37806 6.18572L4.19355 3.35652L4.19355 15.1935C4.19355 15.639 4.5546 16 5 16C5.4454 16 5.80645 15.639 5.80645 15.1935L5.80645 3.35656L8.62194 6.18568C8.93613 6.50137 9.44674 6.50258 9.76242 6.18838C10.0782 5.87415 10.0793 5.3635 9.76516 5.04786L5.57161 0.833983C5.57137 0.83374 5.57109 0.833539 5.57085 0.833257C5.25561 0.517409 4.74335 0.518417 4.42915 0.833297Z" fill="#969C9D"/>
</svg>
