<svg width="24" height="24" viewBox="0 0 24 24" fill="none" xmlns="http://www.w3.org/2000/svg">
<path d="M11.9676 15.132C13.5195 15.132 14.7828 13.8686 14.7828 12.3167V6.68622C14.7828 5.13431 13.5195 3.87097 11.9676 3.87097C10.4157 3.87097 9.15234 5.13431 9.15234 6.68622V12.3167C9.15234 13.8686 10.4157 15.132 11.9676 15.132ZM9.85616 6.68622C9.85616 5.52141 10.8028 4.57478 11.9676 4.57478C13.1324 4.57478 14.079 5.52141 14.079 6.68622V12.3167C14.079 13.4815 13.1324 14.4282 11.9676 14.4282C10.8028 14.4282 9.85616 13.4815 9.85616 12.3167V6.68622Z" fill="#393D3E"/>
<path d="M15.836 11.261C15.6425 11.261 15.4841 11.4193 15.4841 11.6129V12.3167C15.4841 14.2557 13.9041 15.8358 11.9651 15.8358C10.0261 15.8358 8.446 14.2557 8.446 12.3167V11.6129C8.446 11.4193 8.28764 11.261 8.09409 11.261C7.90055 11.261 7.74219 11.4193 7.74219 11.6129V12.3167C7.74219 14.5267 9.44893 16.3425 11.6132 16.522V18.651H9.85362C9.66008 18.651 9.50172 18.8094 9.50172 19.0029C9.50172 19.1965 9.66008 19.3548 9.85362 19.3548H14.0765C14.27 19.3548 14.4284 19.1965 14.4284 19.0029C14.4284 18.8094 14.27 18.651 14.0765 18.651H12.317V16.522C14.4812 16.3425 16.1879 14.5267 16.1879 12.3167V11.6129C16.1879 11.4193 16.0296 11.261 15.836 11.261Z" fill="#393D3E"/>
<path fill-rule="evenodd" clip-rule="evenodd" d="M12 23.2258C18.1998 23.2258 23.2258 18.1998 23.2258 12C23.2258 5.80016 18.1998 0.774194 12 0.774194C5.80016 0.774194 0.774194 5.80016 0.774194 12C0.774194 18.1998 5.80016 23.2258 12 23.2258ZM12 24C18.6274 24 24 18.6274 24 12C24 5.37258 18.6274 0 12 0C5.37258 0 0 5.37258 0 12C0 18.6274 5.37258 24 12 24Z" fill="#393D3E"/>
</svg>
