<svg width="12" height="15" viewBox="0 0 12 15" fill="none" xmlns="http://www.w3.org/2000/svg">
    <path d="M9.26429 6.81691C9.75425 6.5193 10.1679 6.11134 10.4723 5.62555C10.7767 5.13976 10.9633 4.58958 11.0174 4.01887C11.0273 3.50276 10.9353 2.98977 10.7469 2.50919C10.5585 2.02862 10.2772 1.58988 9.91914 1.21803C9.56111 0.846177 9.13332 0.548504 8.66022 0.34201C8.18713 0.135517 7.67798 0.0242496 7.16187 0.0145629L0.671875 0.00732422L0.65626 14.0073L7.65626 14.0151C8.14741 14.0104 8.63284 13.9091 9.08481 13.7168C9.53679 13.5245 9.94646 13.245 10.2904 12.8944C10.6344 12.5438 10.9059 12.1288 11.0895 11.6733C11.2731 11.2177 11.3652 10.7304 11.3605 10.2393L11.3606 10.1193C11.3617 9.42637 11.1651 8.74755 10.7937 8.16257C10.4224 7.5776 9.89178 7.11076 9.26429 6.81691V6.81691ZM2.66964 2.00955L6.86964 2.01424C7.29583 2.00152 7.71571 2.11946 8.07294 2.35223C8.43017 2.585 8.70767 2.92146 8.86819 3.31647C9.03047 3.84444 8.97716 4.41518 8.7199 4.90396C8.46264 5.39274 8.02236 5.7598 7.49528 5.92494C7.29059 5.98467 7.0784 6.01475 6.86518 6.01424L2.66518 6.00955L2.66964 2.00955ZM7.25849 12.0147L2.65849 12.0095L2.66295 8.00955L7.26295 8.01468C7.68913 8.00197 8.10902 8.11991 8.46625 8.35268C8.82348 8.58544 9.10098 8.92191 9.2615 9.31691C9.42378 9.84488 9.37047 10.4156 9.11321 10.9044C8.85595 11.3932 8.41567 11.7602 7.88859 11.9254C7.6839 11.9851 7.47171 12.0152 7.25849 12.0147V12.0147Z"
          fill="black"/>
</svg>
