<svg width="30" height="30" viewBox="0 0 30 30" fill="none" xmlns="http://www.w3.org/2000/svg">
    <path d="M5 0V30H22.5L30 22.5V0H5Z" fill="#EFEEEE"/>
    <path d="M22.5 22.5V30L30 22.5H22.5Z" fill="#ABABAB"/>
    <path d="M15 30H22.5V22.5L15 30Z" fill="#DEDEDD"/>
    <path d="M0 7.5V16.25H20V7.5H0Z" fill="#448E47"/>
    <path d="M5.02492 10.165C4.93242 9.9862 4.76367 9.89745 4.51867 9.89745C4.38367 9.89745 4.27242 9.9337 4.18492 10.0075C4.09742 10.08 4.02867 10.1962 3.97867 10.3587C3.92867 10.5212 3.89367 10.7337 3.87367 10.9975C3.85242 11.26 3.84367 11.5812 3.84367 11.9612C3.84367 12.3662 3.85742 12.6937 3.88492 12.9437C3.91117 13.1937 3.95492 13.3862 4.01242 13.525C4.06992 13.6637 4.14242 13.7562 4.22992 13.8025C4.31742 13.85 4.41867 13.875 4.53367 13.875C4.62867 13.875 4.71742 13.8587 4.79992 13.8262C4.88242 13.7937 4.95367 13.7287 5.01367 13.6312C5.07492 13.5337 5.12242 13.3962 5.15617 13.2187C5.19117 13.0412 5.20867 12.8075 5.20867 12.5175H6.28742C6.28742 12.8062 6.26492 13.0825 6.21992 13.3425C6.17492 13.6025 6.08992 13.83 5.96867 14.025C5.84492 14.2187 5.67367 14.3712 5.45117 14.4812C5.22867 14.5912 4.93992 14.6475 4.58492 14.6475C4.18117 14.6475 3.85742 14.5812 3.61867 14.4525C3.37867 14.3225 3.19492 14.135 3.06742 13.89C2.93992 13.645 2.85742 13.3525 2.81992 13.0125C2.78367 12.6737 2.76367 12.2975 2.76367 11.8887C2.76367 11.4837 2.78367 11.11 2.81992 10.7675C2.85742 10.4262 2.94117 10.1312 3.06742 9.8862C3.19617 9.64245 3.37867 9.44995 3.61867 9.31245C3.85742 9.1762 4.18117 9.1062 4.58492 9.1062C4.97117 9.1062 5.27367 9.1687 5.49617 9.2937C5.71867 9.4187 5.88492 9.57745 5.99367 9.76995C6.10242 9.96245 6.17367 10.17 6.19992 10.3925C6.22742 10.615 6.24117 10.8237 6.24117 11.0187H5.16242C5.16242 10.625 5.11617 10.3412 5.02492 10.165Z"
          fill="white"/>
    <path d="M8.52141 13.0475C8.52141 13.1725 8.53266 13.2863 8.55141 13.3875C8.57266 13.49 8.60891 13.5763 8.66391 13.6463C8.71891 13.7175 8.79391 13.7725 8.88641 13.8125C8.97766 13.8513 9.09516 13.8725 9.23391 13.8725C9.40016 13.8725 9.54766 13.8188 9.68016 13.7113C9.81141 13.6038 9.87891 13.4363 9.87891 13.2125C9.87891 13.0925 9.86141 12.9888 9.83016 12.9013C9.79766 12.8138 9.74391 12.735 9.66891 12.6663C9.59266 12.595 9.49391 12.5325 9.37266 12.475C9.25141 12.4175 9.09891 12.3588 8.91891 12.2988C8.68016 12.2188 8.47266 12.13 8.29641 12.035C8.12141 11.9413 7.97516 11.83 7.85766 11.7013C7.74016 11.5738 7.65391 11.4263 7.59891 11.2588C7.54391 11.09 7.51641 10.8975 7.51641 10.6763C7.51641 10.1463 7.66391 9.75254 7.95891 9.49254C8.25266 9.23254 8.65891 9.10254 9.17391 9.10254C9.41391 9.10254 9.63516 9.12879 9.83766 9.18129C10.0402 9.23379 10.2152 9.31754 10.3627 9.43629C10.5102 9.55379 10.6252 9.70379 10.7077 9.88504C10.7889 10.0675 10.8314 10.2863 10.8314 10.5413V10.6913H9.79766C9.79766 10.4363 9.75266 10.24 9.66391 10.1013C9.57391 9.96504 9.42391 9.89504 9.21391 9.89504C9.09391 9.89504 8.99391 9.91379 8.91391 9.94754C8.83516 9.98254 8.77016 10.0288 8.72266 10.0863C8.67516 10.1438 8.64141 10.2125 8.62391 10.2875C8.60516 10.3625 8.59766 10.44 8.59766 10.52C8.59766 10.6863 8.63266 10.8238 8.70266 10.9363C8.77266 11.05 8.92266 11.1538 9.15266 11.2475L9.98516 11.6075C10.1902 11.6975 10.3577 11.7913 10.4864 11.89C10.6164 11.9875 10.7214 12.0925 10.7977 12.205C10.8752 12.3175 10.9289 12.44 10.9589 12.5763C10.9889 12.71 11.0039 12.8613 11.0039 13.025C11.0039 13.59 10.8402 14.0013 10.5127 14.2588C10.1852 14.5163 9.72891 14.6463 9.14391 14.6463C8.53391 14.6463 8.09766 14.5138 7.83391 14.2488C7.57141 13.9838 7.44141 13.6038 7.44141 13.1088V12.8913H8.52141V13.0475Z"
          fill="white"/>
    <path d="M13.8541 13.1675H13.8778L14.6728 9.20752H15.7916L14.5616 14.5625H13.1741L11.9453 9.20752H13.1003L13.8541 13.1675Z"
          fill="white"/>
</svg>
