
<svg width="24" height="24" viewBox="0 0 24 24" fill="none" xmlns="http://www.w3.org/2000/svg"> <path d="M23.9656 9.11339C23.8829 8.84651 23.6628 8.65207 23.398 8.61173L15.9579 7.47834L12.6305 0.41085C12.5121 0.159259 12.2677 0 12 0C11.7324 0 11.488 0.159308 11.3695 0.41085L8.04195 7.47839L0.60201 8.61173C0.337166 8.65207 0.117135 8.84656 0.0344479 9.11339C-0.0482863 9.38021 0.0207136 9.67313 0.212338 9.86895L5.59583 15.3703L4.32515 23.1383C4.27991 23.4148 4.38838 23.6943 4.60489 23.8592C4.82136 24.024 5.10833 24.0458 5.34538 23.9153L12 20.2478L18.6544 23.9153C18.7573 23.972 18.8696 24 18.9815 24C19.1273 24 19.2724 23.9525 19.3949 23.8592C19.6114 23.6943 19.7199 23.4149 19.6746 23.1383L18.4036 15.3703L23.7876 9.86899C23.9793 9.67313 24.0483 9.38021 23.9656 9.11339Z" fill="#1F5462"/> </svg>
