<svg width="15" height="20" viewBox="0 0 15 20" fill="none" xmlns="http://www.w3.org/2000/svg">
<path d="M14.1252 5.8748C14.1259 5.8741 8.85246 0.600664 8.85246 0.600664C8.48043 0.23 7.96773 0 7.40234 0H0.292969C0.131133 0 0 0.131133 0 0.292969V9.41406C0 9.5759 0.131133 9.70703 0.292969 9.70703C0.454805 9.70703 0.585938 9.5759 0.585938 9.41406V0.585938H7.40234C8.21008 0.585938 8.86719 1.24305 8.86719 2.05078V5.56641C8.86719 5.72824 8.99832 5.85938 9.16016 5.85938H12.6758C13.4835 5.85938 14.1406 6.51648 14.1406 7.32422V19.4141H0.585938V10.5859C0.585938 10.4241 0.454805 10.293 0.292969 10.293C0.131133 10.293 0 10.4241 0 10.5859V19.707C0 19.8689 0.131133 20 0.292969 20H14.4336C14.5954 20 14.7266 19.8689 14.7266 19.707V7.32422C14.7266 6.75883 14.4966 6.24613 14.1252 5.8748ZM9.45312 5.27344V2.05078C9.45312 2.04363 9.45266 2.0366 9.45258 2.02949L12.6971 5.27398C12.69 5.27391 12.6829 5.27344 12.6758 5.27344H9.45312Z" fill="#393D3E"/>
</svg>
