<svg width="15" height="20" viewBox="0 0 15 20" fill="none" xmlns="http://www.w3.org/2000/svg">
<path d="M11.9381 5.97827L14.594 1.20379C14.6514 1.10079 14.6499 0.97516 14.5901 0.873519C14.5304 0.771917 14.4213 0.709534 14.3034 0.709534H5.78811C5.60444 0.709534 5.45553 0.858441 5.45553 1.04211C5.45553 1.22579 5.60444 1.37469 5.78811 1.37469H13.7377L11.2668 5.81659C11.2109 5.91713 11.2109 6.03944 11.2668 6.13995L13.7377 10.5818H1.76942V1.37469H4.56853C4.75221 1.37469 4.90111 1.22579 4.90111 1.04211C4.90111 0.858441 4.75221 0.709534 4.56853 0.709534H1.76942V0.332579C1.76942 0.148907 1.62051 0 1.43684 0H0.332579C0.148907 0 0 0.148907 0 0.332579V15.7326C0 15.9163 0.148907 16.0652 0.332579 16.0652C0.516252 16.0652 0.665159 15.9163 0.665159 15.7326V0.665159H1.10418V19.3348H0.665198V16.9299C0.665198 16.7463 0.516291 16.5974 0.332618 16.5974C0.148946 16.5974 3.90412e-05 16.7463 3.90412e-05 16.9299V19.6674C3.90412e-05 19.8511 0.148946 20 0.332618 20H1.43684C1.62051 20 1.76942 19.8511 1.76942 19.6674V11.247H14.3034C14.4213 11.247 14.5303 11.1846 14.5901 11.083C14.6498 10.9814 14.6513 10.8557 14.594 10.7527L11.9381 5.97827Z" fill="#1F5462"/>
</svg>
