<?xml version="1.0" encoding="UTF-8"?>
<svg width="26" height="26" viewBox="0 0 26 26" fill="none" xmlns="http://www.w3.org/2000/svg">
    <circle cx="13" cy="13" r="13" fill="#EDB5C6"/>
    <path d="M12.1181 4.27335C12.1179 4.27363 12.1175 4.27386 12.1172 4.27419L7.27137 9.14355C6.90834 9.50834 6.9097 10.0984 7.27453 10.4615C7.63933 10.8246 8.22936 10.8232 8.59243 10.4584L11.8459 7.18908L11.8459 20.8674C11.8459 21.3821 12.2631 21.7993 12.7778 21.7993C13.2925 21.7993 13.7097 21.3821 13.7097 20.8674L13.7097 7.18912L16.9631 10.4583C17.3262 10.8231 17.9162 10.8245 18.281 10.4614C18.6459 10.0983 18.6472 9.50825 18.2842 9.14351L13.4383 4.27414C13.438 4.27386 13.4377 4.27363 13.4374 4.2733C13.0731 3.90832 12.4812 3.90949 12.1181 4.27335Z"
          fill="#C10840"/>
</svg>
