<svg width="25" height="25" viewBox="0 0 25 25" fill="none" xmlns="http://www.w3.org/2000/svg">
<path d="M10.6743 7.02101C10.6743 8.45211 9.70054 9.04391 9.05493 9.43128C8.76441 9.60882 8.4685 9.78636 8.4685 9.92087V10.3029C8.4685 10.5396 8.27482 10.7333 8.0381 10.7333C7.80137 10.7333 7.60769 10.5396 7.60769 10.3029V9.92087C7.60769 9.29678 8.14032 8.97935 8.61377 8.69421C9.23247 8.31761 9.8189 7.9679 9.8189 7.02101C9.8189 6.04184 9.02265 5.24021 8.0381 5.24021C7.05893 5.24021 6.2573 6.03646 6.2573 7.02101C6.2573 7.25773 6.06361 7.45141 5.82689 7.45141C5.59017 7.45141 5.39648 7.25773 5.39648 7.02101C5.39648 5.56301 6.5801 4.37939 8.0381 4.37939C9.48534 4.37939 10.6743 5.56301 10.6743 7.02101Z" fill="white"/>
<path d="M8.48949 11.8097C8.48949 12.0627 8.2849 12.2673 8.03185 12.2673C7.77881 12.2673 7.57422 12.0627 7.57422 11.8097C7.57422 11.5566 7.77881 11.3521 8.03185 11.3521C8.2849 11.3521 8.48949 11.562 8.48949 11.8097Z" fill="white"/>
<path d="M20.7663 19.8901C20.7663 20.1268 20.5726 20.3205 20.3359 20.3205H12.5886C12.3519 20.3205 12.1582 20.1268 12.1582 19.8901C12.1582 19.6534 12.3519 19.4597 12.5886 19.4597H20.3359C20.5726 19.4597 20.7663 19.648 20.7663 19.8901Z" fill="white"/>
<path d="M20.7663 16.4631C20.7663 16.6998 20.5726 16.8935 20.3359 16.8935H12.5886C12.3519 16.8935 12.1582 16.6998 12.1582 16.4631C12.1582 16.2264 12.3519 16.0327 12.5886 16.0327H20.3359C20.5726 16.0327 20.7663 16.2264 20.7663 16.4631Z" fill="white"/>
<path d="M24.065 20.2667C24.6515 19.0939 24.9635 17.7811 24.9635 16.463C24.9635 14.2141 24.0919 12.089 22.5102 10.4911C21.0253 8.9901 19.0777 8.10776 16.9849 7.97864C16.7159 3.53471 13.0144 0 8.50051 0C3.81447 0 0 3.81447 0 8.50051C0 9.81863 0.312044 11.1314 0.898472 12.3042L0.0107602 16.4845C-0.0215202 16.6298 0.0269003 16.7751 0.129122 16.8773C0.209823 16.958 0.322804 17.001 0.435785 17.001C0.462686 17.001 0.494966 16.9956 0.527247 16.9903L4.70756 16.1025C5.72439 16.6137 6.84883 16.9096 7.9894 16.9849C8.11314 19.0777 9.00085 21.0253 10.5019 22.5102C12.1052 24.0919 14.2249 24.9635 16.4738 24.9635C17.7919 24.9635 19.1046 24.6515 20.2775 24.065L24.4578 24.9528C24.4847 24.9581 24.517 24.9635 24.5493 24.9635C24.6622 24.9635 24.7698 24.9205 24.8559 24.8398C24.9581 24.7376 25.0012 24.5869 24.9743 24.447L24.065 20.2667ZM4.96042 15.2686C4.89586 15.2364 4.8313 15.2202 4.76136 15.2202C4.73446 15.2202 4.70218 15.2256 4.6699 15.231L0.989933 16.0111L1.77004 12.3311C1.79156 12.2343 1.77542 12.1321 1.73238 12.0406C1.16209 10.9592 0.860811 9.73254 0.860811 8.50051C0.860811 4.28791 4.28791 0.860811 8.50051 0.860811C12.7131 0.860811 16.1402 4.28791 16.1402 8.50051C16.1402 12.7131 12.7131 16.1402 8.50051 16.1402C7.26847 16.1402 6.04182 15.8389 4.96042 15.2686ZM20.3098 23.1935C20.2075 23.1666 20.0999 23.1827 20.0085 23.2311C18.9217 23.8014 17.695 24.1027 16.463 24.1027C12.4495 24.1027 9.11922 20.95 8.83945 16.9956C11.5349 16.888 13.9075 15.5215 15.3924 13.4717H20.3367C20.5734 13.4717 20.7671 13.278 20.7671 13.0413C20.7671 12.8046 20.5734 12.6109 20.3367 12.6109H15.9411C16.5652 11.4864 16.9418 10.206 16.9956 8.84483C20.9554 9.11922 24.1027 12.4495 24.1027 16.463C24.1027 17.695 23.8014 18.9217 23.2311 20.0031C23.1827 20.0999 23.172 20.2075 23.1935 20.3044L23.9736 23.9736L20.3098 23.1935Z" fill="white"/>
</svg>
