<svg width="16" height="16" viewBox="0 0 16 16" fill="none" xmlns="http://www.w3.org/2000/svg">
    <path opacity="0.5" fill-rule="evenodd" clip-rule="evenodd"
          d="M8 15.1111C11.9274 15.1111 15.1111 11.9274 15.1111 8C15.1111 4.07264 11.9274 0.888889 8 0.888889C4.07264 0.888889 0.888889 4.07264 0.888889 8C0.888889 11.9274 4.07264 15.1111 8 15.1111ZM16 8C16 12.4183 12.4183 16 8 16C3.58172 16 0 12.4183 0 8C0 3.58172 3.58172 0 8 0C12.4183 0 16 3.58172 16 8ZM8.05566 12.2231C7.77952 12.2231 7.55566 11.9993 7.55566 11.7231V6.72223C7.55566 6.44609 7.77952 6.22223 8.05566 6.22223C8.33181 6.22223 8.55566 6.44609 8.55566 6.72223V11.7231C8.55566 11.9993 8.33181 12.2231 8.05566 12.2231ZM7.55566 4.50044C7.55566 4.77659 7.77952 5.00089 8.05566 5.00089C8.33181 5.00089 8.55566 4.77659 8.55566 4.50044C8.55566 4.2243 8.33181 4 8.05566 4C7.77952 4 7.55566 4.2243 7.55566 4.50044Z"
          fill="#393D3E"/>
</svg>
