<svg width="6" height="15" viewBox="0 0 6 15" fill="none" xmlns="http://www.w3.org/2000/svg">
<path d="M2.77757 4.06227L4.77757 4.0645L2.56642 14.062L0.566416 14.0598L2.77757 4.06227ZM4.46203 0.064142C4.26425 0.0639214 4.07084 0.122355 3.90627 0.232053C3.7417 0.341751 3.61335 0.497786 3.53746 0.680428C3.46157 0.86307 3.44154 1.06411 3.47991 1.25814C3.51828 1.45216 3.61332 1.63045 3.75302 1.77046C3.89271 1.91047 4.07079 2.00591 4.26473 2.04471C4.45867 2.08351 4.65976 2.06393 4.84257 1.98845C5.02538 1.91296 5.1817 1.78497 5.29176 1.62064C5.40183 1.45631 5.46069 1.26304 5.46091 1.06526C5.46121 0.80004 5.35614 0.545569 5.16881 0.357824C4.98148 0.170079 4.72724 0.0644378 4.46203 0.064142Z" fill="black"/>
</svg>
