<svg width="21" height="11" viewBox="0 0 21 11" fill="none" xmlns="http://www.w3.org/2000/svg">
    <path d="M9.00837 10.1638L5.00837 10.1594C3.68229 10.1579 2.41111 9.6297 1.47448 8.69097C0.537841 7.75224 0.0124754 6.47989 0.0139545 5.15381C0.0154335 3.82772 0.543636 2.55654 1.48236 1.61991C2.42109 0.683272 3.69345 0.157906 5.01953 0.159385L9.01953 0.163847L9.0173 2.16385L5.0173 2.15938C4.22165 2.1585 3.45823 2.47372 2.895 3.0357C2.33176 3.59768 2.01484 4.36039 2.01395 5.15604C2.01307 5.95169 2.32829 6.7151 2.89027 7.27834C3.45225 7.84157 4.21496 8.15849 5.01061 8.15938L9.0106 8.16384L9.00837 10.1638ZM15.0195 0.170539L11.0195 0.166077L11.0173 2.16608L15.0173 2.17054C15.8129 2.17143 16.5757 2.48835 17.1376 3.05158C17.6996 3.61482 18.0148 4.37823 18.0139 5.17388C18.0131 5.96953 17.6961 6.73224 17.1329 7.29422C16.5697 7.8562 15.8062 8.17142 15.0106 8.17053L11.0106 8.16607L11.0084 10.1661L15.0084 10.1705C16.3345 10.172 17.6068 9.64665 18.5455 8.71001C19.4843 7.77338 20.0125 6.50219 20.0139 5.17611C20.0154 3.85003 19.4901 2.57767 18.5534 1.63895C17.6168 0.70022 16.3456 0.172018 15.0195 0.170539ZM14.0151 4.16942L6.01507 4.1605L6.01284 6.1605L14.0128 6.16942L14.0151 4.16942Z"
          fill="#393D3E"/>
</svg>
