<?xml version="1.0" encoding="UTF-8"?>
<svg width="26" height="26" viewBox="0 0 26 26" fill="none" xmlns="http://www.w3.org/2000/svg">
    <circle cx="13" cy="13" r="13" fill="#FEF8D8"/>
    <path d="M13.4366 21.9818C13.4368 21.9815 13.4372 21.9813 13.4374 21.9809L18.2833 17.1116C18.6463 16.7468 18.645 16.1567 18.2802 15.7936C17.9154 15.4306 17.3253 15.432 16.9623 15.7968L13.7088 19.066L13.7088 5.38771C13.7088 4.87302 13.2916 4.45581 12.7769 4.45581C12.2622 4.45581 11.845 4.87302 11.845 5.38771L11.845 19.066L8.59156 15.7968C8.22849 15.432 7.63846 15.4306 7.27367 15.7937C6.90878 16.1568 6.90752 16.7469 7.2705 17.1116L12.1164 21.981C12.1167 21.9813 12.117 21.9815 12.1173 21.9818C12.4815 22.3468 13.0735 22.3456 13.4366 21.9818Z"
          fill="#F3D32A"/>
</svg>
