<svg width="20" height="15" viewBox="0 0 20 15" fill="none" xmlns="http://www.w3.org/2000/svg">
<path d="M0.509215 11.208L2.50921 11.2102L2.50866 11.7102L1.50866 11.7091L1.50754 12.7091L2.50754 12.7102L2.50698 13.2102L0.506985 13.208L0.505869 14.208L3.50587 14.2113L3.51033 10.2113L0.510331 10.208L0.509215 11.208ZM1.51702 4.20912L2.51702 4.21024L2.52148 0.210239L0.521484 0.208008L0.520369 1.20801L1.52037 1.20912L1.51702 4.20912ZM0.514792 6.208L2.31479 6.21001L0.51245 8.308L0.511446 9.208L3.51144 9.21135L3.51256 8.21135L1.71256 8.20934L3.5149 6.11135L3.51591 5.21135L0.515908 5.208L0.514792 6.208ZM5.52037 1.21358L5.51814 3.21358L19.5181 3.2292L19.5204 1.2292L5.52037 1.21358ZM5.50698 13.2136L19.507 13.2292L19.5092 11.2292L5.50921 11.2136L5.50698 13.2136ZM5.51256 8.21358L19.5126 8.22919L19.5148 6.2292L5.51479 6.21358L5.51256 8.21358Z" fill="black"/>
</svg>
