<svg width="211" height="1279" viewBox="0 0 211 1279" fill="none" xmlns="http://www.w3.org/2000/svg">
<g clip-path="url(#clip0_1_7718)">
<path d="M86.7867 743.914C90.5837 758.965 96.279 785.544 99.8047 819.851C101.839 840.056 102.924 860.803 102.924 881.55C102.924 934.842 96.1434 986.777 82.8542 1036.27C69.0226 1087.39 61.9712 1131.87 61.9712 1168.35C61.9712 1218.93 75.396 1241.44 82.4474 1249.85L82.4474 1279L102.381 1279L102.381 1245.78L102.517 1240.9L98.7199 1237.91C97.9062 1237.23 89.092 1228.15 84.4814 1202.66C82.7186 1192.62 81.7694 1181.23 81.7694 1168.62C81.7694 1133.63 88.5496 1090.78 101.839 1041.42C115.806 990.439 122.857 936.604 122.857 881.55C122.857 860.125 121.773 838.7 119.603 817.817C116.348 785.408 111.195 760.05 107.263 743.778L86.7867 743.778L86.7867 743.914Z" fill="#1F5462"/>
<path d="M91.9399 743.914C95.7369 759.372 101.297 785.543 104.822 819.444C110.111 870.702 111.331 950.165 87.6006 1037.63C45.9702 1191.67 78.6507 1238.73 87.465 1247.95L87.465 1273.98L97.4997 1273.98L97.4997 1245.78L97.4997 1243.34L95.6012 1241.84C95.4656 1241.71 84.8885 1232.62 79.7356 1203.61C74.9894 1176.48 74.0402 1126.04 97.2285 1040.2C112.959 981.895 117.84 927.112 117.84 881.685C117.84 857.684 116.484 836.394 114.721 818.359C111.331 785.408 106.178 759.779 102.246 743.914L91.9399 743.914Z" fill="white"/>
<path d="M87.6004 1037.63C45.9699 1191.67 78.6505 1238.73 87.4647 1247.95L87.4647 1273.98L90.5836 1273.98L90.5836 1247.95C81.905 1238.73 49.0888 1191.67 90.7193 1037.63C114.314 950.165 113.094 870.566 107.941 819.309C104.551 785.408 98.9911 759.237 95.0586 743.778L91.9397 743.778C95.7366 759.237 101.296 785.408 104.822 819.309C109.975 870.566 111.195 950.165 87.6004 1037.63Z" fill="#E0F4F4"/>
<path d="M86.7867 535.222C90.5836 520.17 96.279 493.592 99.8047 459.285C101.839 439.08 102.924 418.333 102.924 397.45C102.924 344.158 96.1434 292.223 82.8542 242.864C69.0226 191.742 61.9712 147.264 61.9712 110.787C61.9712 60.2074 75.396 37.6974 82.4474 29.2901L82.4474 -1.76638e-06L102.381 -8.95044e-07L102.381 33.2225L102.517 37.9686L98.7199 40.9519C97.9063 41.6299 89.092 50.7152 84.4815 76.2084C82.7186 86.243 81.7694 97.6336 81.7694 110.245C81.7694 145.23 88.5496 188.08 101.839 237.439C115.806 288.562 122.857 342.396 122.857 397.45C122.857 418.875 121.773 440.3 119.603 461.183C116.348 493.592 111.195 518.95 107.263 535.086L86.7867 535.086L86.7867 535.222Z" fill="#1F5462"/>
<path d="M91.9399 535.222C95.7368 519.763 101.297 493.592 104.822 459.691C109.975 408.434 111.196 328.971 87.6006 241.372C45.9702 87.4635 78.6508 40.4095 87.465 31.053L87.465 5.01733L97.4997 5.01733L97.4997 33.2226L97.4997 35.6634L95.6013 37.1551C95.4657 37.2907 84.8885 46.376 79.7356 75.3949C74.9894 102.515 74.0402 152.959 97.2285 238.796C112.959 297.104 117.84 351.888 117.84 397.314C117.84 421.18 116.484 442.606 114.721 460.641C111.331 493.592 106.178 519.221 102.246 535.086L91.9399 535.086L91.9399 535.222Z" fill="white"/>
<path d="M87.6004 241.372C45.9699 87.4635 78.6505 40.4095 87.4648 31.053L87.4648 5.01733L90.5837 5.01733L90.5837 31.053C81.905 40.2739 49.0888 87.3279 90.7193 241.372C114.314 328.971 113.094 408.434 107.941 459.691C104.551 493.592 98.9911 519.763 95.0586 535.222L91.9397 535.222C95.7366 519.763 101.296 493.592 104.822 459.691C109.975 408.434 111.195 328.971 87.6004 241.372Z" fill="#E0F4F4"/>
<path d="M82.1758 688.859C85.0235 688.859 87.4644 686.554 87.4644 683.571L87.4644 640.042C87.4644 637.195 85.1591 634.754 82.1758 634.754C79.3281 634.754 77.0228 637.059 77.0228 640.042L77.0228 683.706C76.8872 686.554 79.3281 688.859 82.1758 688.859Z" fill="#E0F4F4"/>
<path d="M82.1755 640.042L82.1755 683.706C82.1755 685.605 83.2603 687.368 84.752 688.181C83.9383 688.588 83.1247 688.859 82.1755 688.859C79.3278 688.859 77.0225 686.554 77.0225 683.571L77.0225 640.042C77.0225 637.195 79.3278 634.754 82.1755 634.754C83.1247 634.754 84.0739 635.025 84.752 635.432C83.2603 636.517 82.1755 638.144 82.1755 640.042Z" fill="white"/>
<path d="M82.1758 691.436C77.9721 691.436 74.4464 687.91 74.4464 683.706L74.4464 640.042C74.4464 635.839 77.9721 632.313 82.1759 632.313C86.3796 632.313 89.9053 635.839 89.9053 640.042L89.9053 683.706C89.9053 687.91 86.3796 691.436 82.1758 691.436ZM79.4638 683.706C79.4638 685.198 80.6842 686.418 82.1758 686.418C83.6675 686.418 84.8879 685.198 84.8879 683.706L84.8879 640.042C84.8879 638.551 83.6675 637.33 82.1759 637.33C80.6842 637.33 79.4638 638.551 79.4638 640.042L79.4638 683.706Z" fill="#1F5462"/>
<path d="M128.824 688.859C131.671 688.859 134.112 686.554 134.112 683.571L134.112 640.042C134.112 637.195 131.807 634.754 128.824 634.754C125.976 634.754 123.535 637.059 123.535 640.042L123.535 683.706C123.671 686.554 125.976 688.859 128.824 688.859Z" fill="#E0F4F4"/>
<path d="M128.823 640.042L128.823 683.706C128.823 685.605 129.908 687.368 131.4 688.181C130.586 688.588 129.773 688.859 128.823 688.859C125.976 688.859 123.535 686.554 123.535 683.571L123.535 640.042C123.535 637.195 125.84 634.754 128.823 634.754C129.773 634.754 130.722 635.025 131.4 635.432C129.908 636.517 128.823 638.144 128.823 640.042Z" fill="white"/>
<path d="M128.824 691.436C124.62 691.436 121.094 687.91 121.094 683.706L121.094 640.042C121.094 635.839 124.62 632.313 128.824 632.313C133.028 632.313 136.553 635.839 136.553 640.042L136.553 683.706C136.553 687.91 133.163 691.436 128.824 691.436ZM126.112 683.706C126.112 685.198 127.332 686.418 128.824 686.418C130.315 686.418 131.536 685.198 131.536 683.706L131.536 640.042C131.536 638.551 130.315 637.33 128.824 637.33C127.332 637.33 126.112 638.551 126.112 640.042L126.112 683.706Z" fill="#1F5462"/>
<path d="M94.5165 779.984L94.5165 737.947L116.484 737.947L116.484 779.984C116.484 785.544 112.009 789.883 106.585 789.883L104.416 789.883C98.9914 790.018 94.5165 785.544 94.5165 779.984Z" fill="white"/>
<path d="M94.5162 779.984L94.5162 737.947L101.296 737.947L101.296 775.238C101.296 780.798 105.771 785.137 111.196 785.137L113.365 785.137C114.043 785.137 114.586 785.137 115.264 785.001C113.501 787.984 110.382 790.018 106.585 790.018L104.415 790.018C98.9912 790.018 94.5162 785.544 94.5162 779.984Z" fill="#E0F4F4"/>
<path d="M106.584 792.459L104.415 792.459C97.499 792.459 91.9392 786.9 91.9392 779.984L91.9392 737.947C91.9392 736.591 93.0241 735.371 94.5157 735.371L116.484 735.371C117.84 735.371 119.06 736.455 119.06 737.947L119.06 779.984C119.06 786.9 113.5 792.459 106.584 792.459ZM96.9566 740.388L96.9566 779.984C96.9566 784.052 100.347 787.442 104.415 787.442L106.584 787.442C110.653 787.442 114.043 784.052 114.043 779.984L114.043 740.388L96.9566 740.388Z" fill="#1F5462"/>
<path d="M60.2081 719.641L60.2081 676.655C60.2081 670.96 64.8187 666.214 70.6496 666.214L140.486 666.214C146.181 666.214 150.927 670.824 150.927 676.655L150.927 719.641L60.2081 719.641Z" fill="white"/>
<path d="M150.927 721.404L150.927 706.352L60.2081 706.352L60.2081 721.404L150.927 721.404Z" fill="#E0F4F4"/>
<path d="M150.927 722.082L60.2082 722.082C58.8521 722.082 57.6317 720.997 57.6317 719.505L57.6317 676.655C57.6317 669.604 63.4627 663.773 70.5141 663.773L140.486 663.773C147.537 663.773 153.368 669.604 153.368 676.655L153.368 719.641C153.368 720.997 152.283 722.082 150.927 722.082ZM62.649 717.064L148.351 717.064L148.351 676.655C148.351 672.316 144.825 668.79 140.486 668.79L70.5141 668.79C66.1748 668.79 62.649 672.316 62.649 676.655L62.649 717.064Z" fill="#1F5462"/>
<path d="M146.046 728.997C150.521 728.997 154.046 725.607 154.046 721.404C154.046 717.2 150.385 713.81 146.046 713.81L65.0901 713.81C60.6152 713.81 57.0895 717.2 57.0895 721.404C57.0895 725.607 60.7508 728.997 65.0901 728.997L146.046 728.997Z" fill="white"/>
<path d="M56.9539 721.539C56.9539 720.183 57.3607 718.827 58.0387 717.742C59.3947 720.048 61.9712 721.539 64.9545 721.539L146.046 721.539C149.029 721.539 151.606 720.048 152.962 717.742C153.64 718.827 154.046 720.183 154.046 721.539C154.046 725.743 150.385 729.133 146.046 729.133L65.0901 729.133C60.6152 728.997 56.9539 725.607 56.9539 721.539Z" fill="#E0F4F4"/>
<path d="M146.046 731.574L65.0903 731.574C59.2593 731.574 54.5132 727.099 54.5132 721.539C54.5132 715.979 59.2593 711.505 65.0903 711.505L146.046 711.505C151.877 711.505 156.623 715.979 156.623 721.539C156.487 727.099 151.741 731.574 146.046 731.574ZM65.0903 726.556L146.046 726.556C149.029 726.556 151.606 724.251 151.606 721.539C151.606 718.691 149.165 716.522 146.046 716.522L65.0903 716.522C62.107 716.522 59.5305 718.827 59.5305 721.539C59.5305 724.251 61.9714 726.556 65.0903 726.556Z" fill="#1F5462"/>
<path d="M77.5657 744.049L77.5657 729.133L133.435 729.133L133.435 744.049C133.435 748.524 129.773 752.321 125.163 752.321L85.7019 752.321C81.227 752.185 77.5657 748.524 77.5657 744.049Z" fill="white"/>
<path d="M77.5658 744.049L77.5658 737.134C77.5658 741.608 81.2271 745.405 85.8377 745.405L125.298 745.405C129.773 745.405 133.57 741.744 133.57 737.134L133.57 744.049C133.57 748.524 129.909 752.321 125.298 752.321L85.8377 752.321C81.2271 752.185 77.5658 748.524 77.5658 744.049Z" fill="#E0F4F4"/>
<path d="M125.298 754.762L85.8372 754.762C79.8706 754.762 75.1245 749.88 75.1245 744.049L75.1245 729.133C75.1245 727.777 76.2093 726.557 77.701 726.557L133.434 726.557C134.79 726.557 136.011 727.641 136.011 729.133L136.011 744.049C136.011 749.88 131.129 754.762 125.298 754.762ZM80.1419 731.574L80.1419 744.049C80.1419 747.168 82.7183 749.745 85.8372 749.745L125.298 749.745C128.417 749.745 130.993 747.168 130.993 744.049L130.993 731.574L80.1419 731.574Z" fill="#1F5462"/>
<path d="M110.924 684.113L110.924 666.349L99.9399 666.349L99.9399 684.113L110.924 684.113Z" fill="#E0F4F4"/>
<path d="M105.5 684.113L105.5 666.349L100.075 666.349L100.075 684.113L105.5 684.113Z" fill="white"/>
<path d="M110.924 686.554L99.9401 686.554C98.584 686.554 97.3636 685.469 97.3636 683.978L97.3636 666.214C97.3636 664.858 98.4484 663.637 99.9401 663.637L110.924 663.637C112.28 663.637 113.5 664.722 113.5 666.214L113.5 683.978C113.5 685.469 112.416 686.554 110.924 686.554ZM102.517 668.79L102.517 681.537L108.483 681.537L108.483 668.79L102.517 668.79Z" fill="#1F5462"/>
<path d="M124.892 739.71C124.892 738.354 123.807 737.134 122.315 737.134L88.5497 737.134C87.1937 737.134 85.9732 738.218 85.9732 739.71C85.9732 741.066 87.0581 742.286 88.5497 742.286L122.451 742.286C123.807 742.286 124.892 741.066 124.892 739.71Z" fill="#1F5462"/>
<path d="M42.8509 605.328L23.3239 585.802C22.3747 584.852 20.7474 584.852 19.7982 585.802C19.2558 586.344 19.1202 586.886 19.1202 587.564C19.1202 588.242 19.3914 588.92 19.7982 589.327L39.3252 608.854C40.2744 609.803 41.9017 609.803 42.8509 608.854C43.9358 607.905 43.9358 606.277 42.8509 605.328Z" fill="#1F5462"/>
<path d="M32.6807 635.296C32.6807 633.94 31.5958 632.72 30.1042 632.72L2.57657 632.72C1.22053 632.72 7.62465e-05 633.805 7.61813e-05 635.296C7.61221e-05 636.652 1.08492 637.873 2.57657 637.873L30.1042 637.873C31.4602 637.737 32.6807 636.652 32.6807 635.296Z" fill="#1F5462"/>
<path d="M43.9355 664.722C44.8848 663.773 44.8848 662.146 43.9355 661.196C42.9863 660.247 41.3591 660.247 40.4098 661.196L20.8828 680.723C20.3404 681.265 20.2048 681.808 20.2048 682.486C20.2048 683.164 20.476 683.706 20.8828 684.249C21.8321 685.198 23.4593 685.198 24.4085 684.249L43.9355 664.722Z" fill="#1F5462"/>
<path d="M178.455 634.889C178.455 636.245 179.54 637.466 181.032 637.466L208.424 637.466C209.78 637.466 211 636.381 211 634.889C211 633.533 209.915 632.313 208.424 632.313L180.896 632.313C179.54 632.313 178.455 633.398 178.455 634.889Z" fill="#1F5462"/>
<path d="M167.064 605.328C166.522 605.871 166.386 606.413 166.386 607.091C166.386 607.769 166.658 608.447 167.064 608.854C168.014 609.803 169.641 609.803 170.59 608.854L190.117 589.327C191.066 588.378 191.066 586.751 190.117 585.802C189.168 584.852 187.541 584.852 186.591 585.802L167.064 605.328Z" fill="#1F5462"/>
<path d="M167.335 662.959C167.335 663.637 167.606 664.18 168.013 664.722L187.54 684.249C188.489 685.198 190.117 685.198 191.066 684.249C192.015 683.299 192.015 681.672 191.066 680.723L171.675 661.196C170.725 660.247 169.098 660.247 168.149 661.196C167.606 661.603 167.335 662.281 167.335 662.959Z" fill="#1F5462"/>
<path d="M94.5165 491.829L94.5165 533.866L116.484 533.866L116.484 491.829C116.484 486.27 112.009 481.93 106.585 481.93L104.416 481.93C98.9914 481.795 94.5165 486.27 94.5165 491.829Z" fill="white"/>
<path d="M94.5163 491.829L94.5162 533.866L101.296 533.866L101.296 496.575C101.296 491.016 105.771 486.676 111.196 486.676L113.365 486.676C114.043 486.676 114.586 486.676 115.264 486.812C113.501 483.829 110.382 481.795 106.585 481.795L104.415 481.795C98.9912 481.795 94.5163 486.27 94.5163 491.829Z" fill="#E0F4F4"/>
<path d="M119.06 491.829L119.06 533.866C119.06 535.222 117.975 536.442 116.484 536.442L94.3801 536.442C93.0241 536.442 91.8036 535.357 91.8036 533.866L91.8036 491.829C91.8036 484.913 97.3634 479.354 104.279 479.354L106.584 479.354C113.5 479.354 119.06 484.913 119.06 491.829ZM114.043 531.425L114.043 491.829C114.043 487.761 110.653 484.371 106.584 484.371L104.415 484.371C100.347 484.371 96.9566 487.761 96.9566 491.829L96.9566 531.425L114.043 531.425Z" fill="#1F5462"/>
<path d="M77.5657 527.899L77.5657 542.816L133.435 542.816L133.435 527.899C133.435 523.425 129.773 519.628 125.163 519.628L85.702 519.628C81.227 519.628 77.5657 523.289 77.5657 527.899Z" fill="white"/>
<path d="M77.5658 527.899L77.5658 534.815C77.5658 530.34 81.2271 526.543 85.8377 526.543L125.298 526.543C129.773 526.543 133.57 530.205 133.57 534.815L133.57 527.899C133.57 523.425 129.909 519.628 125.298 519.628L85.8377 519.628C81.2271 519.628 77.5658 523.289 77.5658 527.899Z" fill="#E0F4F4"/>
<path d="M136.011 527.899L136.011 542.816C136.011 544.172 134.926 545.392 133.434 545.392L77.5654 545.392C76.2093 545.392 74.9889 544.307 74.9889 542.816L74.9889 527.899C74.9889 521.933 79.8706 517.187 85.7016 517.187L125.298 517.187C131.129 517.051 136.011 521.933 136.011 527.899ZM130.993 540.239L130.993 527.764C130.993 524.645 128.417 522.069 125.298 522.069L85.8372 522.069C82.7183 522.069 80.1419 524.645 80.1419 527.764L80.1419 540.239L130.993 540.239Z" fill="#1F5462"/>
<path d="M124.892 532.103C124.892 533.459 123.807 534.679 122.315 534.679L88.5497 534.679C87.1937 534.679 85.9732 533.595 85.9732 532.103C85.9732 530.747 87.0581 529.527 88.5497 529.527L122.451 529.527C123.807 529.527 124.892 530.747 124.892 532.103Z" fill="#1F5462"/>
<path d="M150.928 596.107L150.928 553.121C150.928 547.426 146.317 542.68 140.486 542.68L70.5145 542.68C64.8191 542.68 60.073 547.29 60.073 553.121L60.073 596.107L150.928 596.107Z" fill="white"/>
<path d="M150.928 597.87L150.928 582.818L60.2086 582.818L60.2086 597.87L150.928 597.87Z" fill="#E0F4F4"/>
<path d="M57.6317 596.107L57.6317 553.121C57.6317 546.07 63.4627 540.239 70.5141 540.239L140.486 540.239C147.537 540.239 153.368 546.07 153.368 553.121L153.368 596.107C153.368 597.463 152.283 598.684 150.792 598.684L60.0726 598.684C58.7165 598.548 57.6317 597.463 57.6317 596.107ZM148.351 553.121C148.351 548.782 144.825 545.256 140.486 545.256L70.5141 545.256C66.1748 545.256 62.649 548.782 62.649 553.121L62.649 593.531L148.351 593.531L148.351 553.121Z" fill="#1F5462"/>
<path d="M65.0901 605.464C60.6152 605.464 57.0895 602.073 57.0895 597.87C57.0895 593.666 60.7508 590.276 65.0901 590.276L146.046 590.276C150.521 590.276 154.046 593.666 154.046 597.87C154.046 602.074 150.385 605.464 146.046 605.464L65.0901 605.464Z" fill="white"/>
<path d="M154.046 598.006C154.046 596.65 153.64 595.294 152.962 594.209C151.606 596.514 149.029 598.006 146.046 598.006L65.0901 598.006C62.1068 598.006 59.5303 596.514 58.1743 594.209C57.4963 595.294 57.0895 596.65 57.0895 598.006C57.0895 602.209 60.7508 605.599 65.0901 605.599L146.046 605.599C150.385 605.464 154.046 602.074 154.046 598.006Z" fill="#E0F4F4"/>
<path d="M54.5132 598.006C54.5132 592.446 59.2593 587.971 65.0903 587.971L146.046 587.971C151.877 587.971 156.623 592.446 156.623 598.006C156.623 603.565 151.877 608.04 146.046 608.04L65.0903 608.04C59.2593 608.04 54.5132 603.565 54.5132 598.006ZM151.47 598.006C151.47 595.158 149.029 592.988 145.91 592.988L64.9547 592.988C61.9714 592.988 59.3949 595.293 59.3949 598.006C59.3949 600.853 61.8358 603.023 64.9547 603.023L145.91 603.023C149.029 603.023 151.47 600.718 151.47 598.006Z" fill="#1F5462"/>
<path d="M91.2617 575.903L91.2617 558.545C91.2617 557.189 90.1769 555.969 88.6853 555.969C87.3292 555.969 86.1088 557.054 86.1088 558.545L86.1088 575.903C86.1088 577.259 87.1936 578.479 88.6852 578.479C90.1769 578.479 91.2617 577.259 91.2617 575.903Z" fill="#1F5462"/>
<path d="M97.3641 558.545L97.3641 575.903C97.3641 577.259 98.449 578.479 99.9406 578.479C101.297 578.479 102.517 577.394 102.517 575.903L102.517 558.545C102.517 557.189 101.432 555.969 99.9406 555.969C98.5846 555.969 97.3641 557.054 97.3641 558.545Z" fill="#1F5462"/>
<path d="M108.62 558.545L108.62 575.903C108.62 577.259 109.704 578.479 111.196 578.479C112.552 578.479 113.772 577.394 113.772 575.903L113.772 558.545C113.772 557.189 112.688 555.969 111.196 555.969C109.704 555.969 108.62 557.054 108.62 558.545Z" fill="#1F5462"/>
<path d="M119.739 558.545L119.739 575.903C119.739 577.259 120.823 578.479 122.315 578.479C123.671 578.479 124.892 577.394 124.892 575.903L124.892 558.545C124.892 557.189 123.807 555.969 122.315 555.969C120.823 555.969 119.739 557.054 119.739 558.545Z" fill="#1F5462"/>
</g>
<defs>
<clipPath id="clip0_1_7718">
<rect width="1279" height="211" fill="white" transform="translate(211) rotate(90)"/>
</clipPath>
</defs>
</svg>
