<svg width="187" height="30" viewBox="0 0 187 30" fill="none" xmlns="http://www.w3.org/2000/svg">
<path d="M42.9566 30C40.7663 30 38.9983 29.316 37.6525 27.948C36.3067 26.58 35.6339 24.788 35.6339 22.5718V20.1368C35.6339 20 35.6734 19.8906 35.7526 19.8085C35.8582 19.699 35.9769 19.6443 36.1088 19.6443H39.7108C39.8428 19.6443 39.9483 19.699 40.0275 19.8085C40.133 19.8906 40.1858 20 40.1858 20.1368V22.3256C40.1858 23.3926 40.4365 24.2544 40.9379 24.9111C41.4656 25.5677 42.1385 25.896 42.9566 25.896C43.7746 25.896 44.4475 25.5951 44.9753 24.9932C45.503 24.3639 45.7669 23.5431 45.7669 22.5308C45.7669 21.8194 45.6218 21.2038 45.3315 20.684C45.0412 20.1642 44.6322 19.6717 44.1045 19.2066C43.5767 18.7415 42.7323 18.0711 41.5712 17.1956C40.2518 16.2107 39.1831 15.3352 38.365 14.5691C37.5734 13.803 36.9005 12.8865 36.3463 11.8194C35.8186 10.725 35.5547 9.46649 35.5547 8.04378C35.5547 5.77292 36.2144 3.96717 37.5338 2.62654C38.8532 1.28591 40.5948 0.615597 42.7587 0.615597C44.9489 0.615597 46.7169 1.32695 48.0627 2.74966C49.4085 4.14501 50.0814 6.00547 50.0814 8.33105V9.31601C50.0814 10.8208 50.0286 10.9439 49.923 11.0534C49.8439 11.1354 49.7383 11.1765 49.6064 11.1765H46.044C45.912 11.1765 45.7933 11.1354 45.6877 11.0534C45.6086 10.9439 45.569 10.8208 45.569 9.31601V8.24897C45.569 7.18194 45.3051 6.33379 44.7773 5.70451C44.276 5.04788 43.6031 4.71956 42.7587 4.71956C41.967 4.71956 41.3601 5.1026 40.8587 5.70451C40.3573 6.27907 40.0671 7.00411 40.0671 8.04378C40.0671 9.02873 40.3309 9.8632 40.8587 10.5472C41.4129 11.2312 42.4816 12.1751 44.0649 13.3789C45.6745 14.6101 46.8884 15.6224 47.7064 16.4159C48.5245 17.1819 49.1578 18.0301 49.6064 18.9603C50.055 19.8906 50.2793 20.9986 50.2793 22.2845C50.2793 24.6101 49.6064 26.4843 48.2606 27.907C46.9148 29.3023 45.1468 30 42.9566 30Z" fill="#003647"/>
<path d="M53.3506 29.6717C53.2187 29.6717 53.0999 29.6306 52.9944 29.5486C52.9152 29.4391 52.8756 29.316 52.8756 29.1792V1.43639C52.8756 1.29959 52.9152 1.19015 52.9944 1.10807C53.0999 0.998632 53.2187 0.943912 53.3506 0.943912H56.9922C57.1241 0.943912 57.2297 0.998632 57.3088 1.10807C57.4144 1.19015 57.4672 1.29959 57.4672 1.43639V16.0465C57.4672 16.156 57.4936 16.2107 57.5463 16.2107C57.5991 16.2107 57.6519 16.1696 57.7047 16.0876L62.0191 9.02873C62.1247 8.80985 62.3094 8.70041 62.5733 8.70041H66.3732C66.5579 8.70041 66.6766 8.76881 66.7294 8.90561C66.7822 9.01505 66.7558 9.15185 66.6502 9.31601L62.5337 15.7592C62.4809 15.8687 62.4677 15.9644 62.4941 16.0465L67.244 29.0971C67.2704 29.1518 67.2836 29.2202 67.2836 29.3023C67.2836 29.5486 67.1384 29.6717 66.8482 29.6717H63.0878C62.824 29.6717 62.6524 29.5349 62.5733 29.2613L59.6442 19.9863C59.6178 19.9042 59.5782 19.8632 59.5254 19.8632C59.4727 19.8358 59.4331 19.8632 59.4067 19.9453L57.5463 22.8181C57.4936 22.9275 57.4672 23.0096 57.4672 23.0643V29.1792C57.4672 29.316 57.4144 29.4391 57.3088 29.5486C57.2297 29.6306 57.1241 29.6717 56.9922 29.6717H53.3506Z" fill="#003647"/>
<path d="M72.0183 5.82763C71.2002 5.82763 70.5273 5.55404 69.9996 5.00684C69.4718 4.45964 69.2079 3.76197 69.2079 2.91382C69.2079 2.06566 69.4718 1.36799 69.9996 0.820795C70.5273 0.273599 71.2002 0 72.0183 0C72.8363 0 73.496 0.273599 73.9974 0.820795C74.5252 1.36799 74.789 2.06566 74.789 2.91382C74.789 3.76197 74.5252 4.45964 73.9974 5.00684C73.4696 5.55404 72.8099 5.82763 72.0183 5.82763ZM70.2371 29.6717C70.1051 29.6717 69.9864 29.6306 69.8808 29.5486C69.8017 29.4391 69.7621 29.316 69.7621 29.1792V9.19289C69.7621 9.05609 69.8017 8.94665 69.8808 8.86457C69.9864 8.75513 70.1051 8.70041 70.2371 8.70041H73.8786C74.0106 8.70041 74.1161 8.75513 74.1953 8.86457C74.3008 8.94665 74.3536 9.05609 74.3536 9.19289V29.1792C74.3536 29.316 74.3008 29.4391 74.1953 29.5486C74.1161 29.6306 74.0106 29.6717 73.8786 29.6717H70.2371Z" fill="#003647"/>
<path d="M78.0286 29.6717C77.8967 29.6717 77.7779 29.6306 77.6724 29.5486C77.5932 29.4391 77.5536 29.316 77.5536 29.1792V1.43639C77.5536 1.29959 77.5932 1.19015 77.6724 1.10807C77.7779 0.998632 77.8967 0.943912 78.0286 0.943912H81.6702C81.8021 0.943912 81.9076 0.998632 81.9868 1.10807C82.0924 1.19015 82.1451 1.29959 82.1451 1.43639V29.1792C82.1451 29.316 82.0924 29.4391 81.9868 29.5486C81.9076 29.6306 81.8021 29.6717 81.6702 29.6717H78.0286Z" fill="#003647"/>
<path d="M85.5183 29.6717C85.3863 29.6717 85.2676 29.6306 85.162 29.5486C85.0829 29.4391 85.0433 29.316 85.0433 29.1792V1.43639C85.0433 1.29959 85.0829 1.19015 85.162 1.10807C85.2676 0.998632 85.3863 0.943912 85.5183 0.943912H89.1599C89.2918 0.943912 89.3974 0.998632 89.4765 1.10807C89.5821 1.19015 89.6348 1.29959 89.6348 1.43639V29.1792C89.6348 29.316 89.5821 29.4391 89.4765 29.5486C89.3974 29.6306 89.2918 29.6717 89.1599 29.6717H85.5183Z" fill="#003647"/>
<path d="M108.089 21.7921C108.089 24.3092 107.376 26.2517 105.951 27.6197C104.553 28.9877 102.719 29.6717 100.449 29.6717H93.483C93.351 29.6717 93.2323 29.6306 93.1267 29.5486C93.0476 29.4391 93.008 29.316 93.008 29.1792V1.43639C93.008 1.29959 93.0476 1.19015 93.1267 1.10807C93.2323 0.998632 93.351 0.943912 93.483 0.943912H99.737C102.244 0.943912 104.21 1.60055 105.635 2.91382C107.06 4.22709 107.772 6.14227 107.772 8.65937C107.772 11.4774 106.809 13.4884 104.883 14.6922C104.751 14.7743 104.724 14.8564 104.803 14.9384C105.833 15.6224 106.637 16.539 107.218 17.6881C107.799 18.8372 108.089 20.2052 108.089 21.7921ZM97.7974 5.04788C97.6655 5.04788 97.5995 5.11628 97.5995 5.25308V12.8865C97.5995 13.0233 97.6655 13.0917 97.7974 13.0917H99.8161C100.898 13.0917 101.742 12.7497 102.349 12.0657C102.956 11.3817 103.26 10.4104 103.26 9.15185C103.26 7.83858 102.956 6.82627 102.349 6.11491C101.742 5.40356 100.898 5.04788 99.8161 5.04788H97.7974ZM100.093 25.5267C101.149 25.5267 101.98 25.1436 102.587 24.3776C103.194 23.6115 103.497 22.5308 103.497 21.1354C103.497 19.7127 103.194 18.6047 102.587 17.8112C101.98 16.9904 101.149 16.58 100.093 16.58H97.7974C97.6655 16.58 97.5995 16.6484 97.5995 16.7852V25.3215C97.5995 25.4583 97.6655 25.5267 97.7974 25.5267H100.093Z" fill="#003647"/>
<path d="M119.723 9.19289C119.723 9.05609 119.762 8.94665 119.841 8.86457C119.947 8.75513 120.066 8.70041 120.198 8.70041H123.839C123.971 8.70041 124.077 8.75513 124.156 8.86457C124.261 8.94665 124.314 9.05609 124.314 9.19289V29.1792C124.314 29.316 124.261 29.4391 124.156 29.5486C124.077 29.6306 123.971 29.6717 123.839 29.6717H120.198C120.066 29.6717 119.947 29.6306 119.841 29.5486C119.762 29.4391 119.723 29.316 119.723 29.1792V28.2763C119.723 28.1943 119.696 28.1395 119.643 28.1122C119.591 28.0848 119.538 28.1122 119.485 28.1943C118.72 29.3707 117.493 29.959 115.804 29.959C114.194 29.959 112.888 29.4665 111.885 28.4815C110.909 27.4692 110.421 25.9234 110.421 23.844V9.19289C110.421 9.05609 110.46 8.94665 110.54 8.86457C110.645 8.75513 110.764 8.70041 110.896 8.70041H114.537C114.669 8.70041 114.775 8.75513 114.854 8.86457C114.96 8.94665 115.012 9.05609 115.012 9.19289V22.8181C115.012 24.87 115.778 25.896 117.308 25.896C118.073 25.896 118.667 25.6088 119.089 25.0342C119.511 24.4323 119.723 23.6252 119.723 22.6129V9.19289Z" fill="#003647"/>
<path d="M129.954 5.82763C129.136 5.82763 128.463 5.55404 127.935 5.00684C127.407 4.45964 127.143 3.76197 127.143 2.91382C127.143 2.06566 127.407 1.36799 127.935 0.820795C128.463 0.273599 129.136 0 129.954 0C130.772 0 131.431 0.273599 131.933 0.820795C132.461 1.36799 132.724 2.06566 132.724 2.91382C132.724 3.76197 132.461 4.45964 131.933 5.00684C131.405 5.55404 130.745 5.82763 129.954 5.82763ZM128.172 29.6717C128.041 29.6717 127.922 29.6306 127.816 29.5486C127.737 29.4391 127.697 29.316 127.697 29.1792V9.19289C127.697 9.05609 127.737 8.94665 127.816 8.86457C127.922 8.75513 128.041 8.70041 128.172 8.70041H131.814C131.946 8.70041 132.052 8.75513 132.131 8.86457C132.236 8.94665 132.289 9.05609 132.289 9.19289V29.1792C132.289 29.316 132.236 29.4391 132.131 29.5486C132.052 29.6306 131.946 29.6717 131.814 29.6717H128.172Z" fill="#003647"/>
<path d="M135.964 29.6717C135.832 29.6717 135.713 29.6306 135.608 29.5486C135.529 29.4391 135.489 29.316 135.489 29.1792V1.43639C135.489 1.29959 135.529 1.19015 135.608 1.10807C135.713 0.998632 135.832 0.943912 135.964 0.943912H139.606C139.737 0.943912 139.843 0.998632 139.922 1.10807C140.028 1.19015 140.081 1.29959 140.081 1.43639V29.1792C140.081 29.316 140.028 29.4391 139.922 29.5486C139.843 29.6306 139.737 29.6717 139.606 29.6717H135.964Z" fill="#003647"/>
<path d="M152.201 1.43639C152.201 1.29959 152.241 1.19015 152.32 1.10807C152.426 0.998632 152.544 0.943912 152.676 0.943912H156.318C156.45 0.943912 156.555 0.998632 156.635 1.10807C156.74 1.19015 156.793 1.29959 156.793 1.43639V29.1792C156.793 29.316 156.74 29.4391 156.635 29.5486C156.555 29.6306 156.45 29.6717 156.318 29.6717H152.676C152.544 29.6717 152.426 29.6306 152.32 29.5486C152.241 29.4391 152.201 29.316 152.201 29.1792V28.6867C152.201 28.6047 152.175 28.5499 152.122 28.5226C152.069 28.4952 152.017 28.5089 151.964 28.5636C151.014 29.5212 149.826 30 148.401 30C146.633 30 145.261 29.3981 144.285 28.1943C143.309 26.9904 142.82 25.3762 142.82 23.3516V15.0205C142.82 12.9412 143.309 11.3133 144.285 10.1368C145.288 8.96033 146.66 8.37209 148.401 8.37209C149.008 8.37209 149.629 8.49521 150.262 8.74145C150.895 8.96033 151.463 9.32969 151.964 9.84952C152.017 9.90424 152.069 9.91792 152.122 9.89056C152.175 9.8632 152.201 9.80848 152.201 9.7264V1.43639ZM149.826 25.896C150.46 25.896 150.988 25.6908 151.41 25.2804C151.832 24.8427 152.096 24.2681 152.201 23.5568V14.8153C152.096 14.104 151.832 13.5431 151.41 13.1327C150.988 12.6949 150.46 12.4761 149.826 12.4761C149.088 12.4761 148.494 12.7497 148.045 13.2969C147.597 13.8167 147.372 14.5144 147.372 15.3899V22.9822C147.372 23.8577 147.597 24.5691 148.045 25.1163C148.494 25.6361 149.088 25.896 149.826 25.896Z" fill="#003647"/>
<path d="M173.715 20.4378C173.715 20.5746 173.662 20.6977 173.557 20.8071C173.478 20.8892 173.372 20.9302 173.24 20.9302H164.493C164.361 20.9302 164.295 20.9986 164.295 21.1354V22.9822C164.295 23.8304 164.519 24.528 164.968 25.0752C165.416 25.6224 165.997 25.896 166.709 25.896C167.316 25.896 167.831 25.7045 168.253 25.3215C168.701 24.9111 168.992 24.3912 169.124 23.762C169.203 23.4884 169.374 23.3516 169.638 23.3516L173.161 23.5157C173.293 23.5157 173.399 23.5705 173.478 23.6799C173.583 23.762 173.623 23.8851 173.596 24.0492C173.412 25.9644 172.739 27.4419 171.578 28.4815C170.417 29.4938 168.794 30 166.709 30C164.545 30 162.83 29.4118 161.563 28.2353C160.323 27.0315 159.703 25.4036 159.703 23.3516V15.0205C159.703 13.0233 160.323 11.4227 161.563 10.2189C162.83 8.98769 164.545 8.37209 166.709 8.37209C168.873 8.37209 170.575 8.98769 171.815 10.2189C173.082 11.4227 173.715 13.0233 173.715 15.0205V20.4378ZM166.709 12.4761C165.997 12.4761 165.416 12.7497 164.968 13.2969C164.519 13.8441 164.295 14.5417 164.295 15.3899V17.2367C164.295 17.3735 164.361 17.4419 164.493 17.4419H168.965C169.097 17.4419 169.163 17.3735 169.163 17.2367V15.3899C169.163 14.5144 168.939 13.8167 168.49 13.2969C168.042 12.7497 167.448 12.4761 166.709 12.4761Z" fill="#003647"/>
<path d="M184.75 8.45417C185.463 8.45417 186.017 8.59097 186.412 8.86457C186.624 9.00137 186.703 9.20657 186.65 9.48017L186.017 13.2969C185.99 13.6252 185.806 13.7209 185.463 13.5841C185.093 13.4747 184.75 13.42 184.433 13.42C184.117 13.42 183.826 13.461 183.563 13.5431C182.824 13.6525 182.217 14.0903 181.742 14.8564C181.293 15.5951 181.069 16.4843 181.069 17.5239V29.1382C181.069 29.275 181.016 29.3981 180.911 29.5075C180.831 29.5896 180.726 29.6306 180.594 29.6306H176.952C176.82 29.6306 176.702 29.5896 176.596 29.5075C176.517 29.3981 176.477 29.275 176.477 29.1382V9.19289C176.477 9.05609 176.517 8.94665 176.596 8.86457C176.702 8.75513 176.82 8.70041 176.952 8.70041H180.594C180.726 8.70041 180.831 8.75513 180.911 8.86457C181.016 8.94665 181.069 9.05609 181.069 9.19289V11.0807C181.069 11.1902 181.095 11.2586 181.148 11.2859C181.201 11.2859 181.24 11.2312 181.267 11.1218C181.979 9.34337 183.14 8.45417 184.75 8.45417Z" fill="#003647"/>
<path fill-rule="evenodd" clip-rule="evenodd" d="M18.7656 1.57462C18.7656 1.31862 18.559 1.11108 18.3041 1.11108H2.43694C2.18208 1.11108 1.97547 1.31862 1.97547 1.57462V4.6158C1.97547 4.87181 2.18208 5.07934 2.43694 5.07934H18.3041C18.559 5.07934 18.7656 4.87181 18.7656 4.6158V1.57462ZM7.90106 28.4253C7.90106 28.6813 8.10767 28.8889 8.36253 28.8889H24.2297C24.4846 28.8889 24.6912 28.6813 24.6912 28.4253V25.3841C24.6912 25.1281 24.4846 24.9206 24.2297 24.9206H8.36253C8.10767 24.9206 7.90106 25.1281 7.90106 25.3841V28.4253ZM0.461476 20.9523C0.20661 20.9523 0 20.7448 0 20.4888V9.51112C0 9.25511 0.20661 9.04758 0.461476 9.04758H3.48915C3.74401 9.04758 3.95062 9.25511 3.95062 9.51112L3.95062 16.5206C3.95062 16.7766 4.15723 16.9841 4.4121 16.9841H18.3038C18.5587 16.9841 18.7653 17.1916 18.7653 17.4477V20.4888C18.7653 20.7448 18.5587 20.9524 18.3038 20.9524L3.95048 20.9524L0.461476 20.9523ZM26.2052 20.9523C26.4601 20.9523 26.6667 20.7448 26.6667 20.4888V9.51108C26.6667 9.25508 26.4601 9.04754 26.2052 9.04754H22.7163H8.36289C8.10803 9.04754 7.90142 9.25508 7.90142 9.51108V12.5523C7.90142 12.8083 8.10803 13.0158 8.36289 13.0158H22.2546C22.5094 13.0158 22.716 13.2233 22.716 13.4793L22.716 20.4888C22.716 20.7448 22.9227 20.9523 23.1775 20.9523L26.2052 20.9523Z" fill="#003647"/>
</svg>
