<svg width="218" height="68" viewBox="0 0 218 68" fill="none" xmlns="http://www.w3.org/2000/svg">
<path d="M71.0002 65.18C70.5122 65.18 70.1022 65.092 69.7702 64.916C69.4422 64.74 69.1962 64.506 69.0322 64.214C68.8682 63.922 68.7862 63.604 68.7862 63.26C68.7862 62.908 68.8562 62.608 68.9962 62.36C69.1402 62.108 69.3342 61.902 69.5782 61.742C69.8262 61.582 70.1122 61.46 70.4362 61.376C70.7642 61.296 71.1262 61.226 71.5222 61.166C71.9222 61.102 72.3122 61.048 72.6922 61.004C73.0762 60.956 73.4122 60.91 73.7002 60.866L73.3882 61.058C73.4002 60.418 73.2762 59.944 73.0162 59.636C72.7562 59.328 72.3042 59.174 71.6602 59.174C71.2162 59.174 70.8402 59.274 70.5322 59.474C70.2282 59.674 70.0142 59.99 69.8902 60.422L69.0322 60.17C69.1802 59.59 69.4782 59.14 69.9262 58.82C70.3742 58.5 70.9562 58.34 71.6722 58.34C72.2642 58.34 72.7662 58.452 73.1782 58.676C73.5942 58.896 73.8882 59.216 74.0602 59.636C74.1402 59.824 74.1922 60.034 74.2162 60.266C74.2402 60.498 74.2522 60.734 74.2522 60.974V65H73.4662V63.374L73.6942 63.47C73.4742 64.026 73.1322 64.45 72.6682 64.742C72.2042 65.034 71.6482 65.18 71.0002 65.18ZM71.1022 64.418C71.5142 64.418 71.8742 64.344 72.1822 64.196C72.4902 64.048 72.7382 63.846 72.9262 63.59C73.1142 63.33 73.2362 63.038 73.2922 62.714C73.3402 62.506 73.3662 62.278 73.3702 62.03C73.3742 61.778 73.3762 61.59 73.3762 61.466L73.7122 61.64C73.4122 61.68 73.0862 61.72 72.7342 61.76C72.3862 61.8 72.0422 61.846 71.7022 61.898C71.3662 61.95 71.0622 62.012 70.7902 62.084C70.6062 62.136 70.4282 62.21 70.2562 62.306C70.0842 62.398 69.9422 62.522 69.8302 62.678C69.7222 62.834 69.6682 63.028 69.6682 63.26C69.6682 63.448 69.7142 63.63 69.8062 63.806C69.9022 63.982 70.0542 64.128 70.2622 64.244C70.4742 64.36 70.7542 64.418 71.1022 64.418ZM87.1446 65L87.1506 60.746C87.1506 60.246 87.0106 59.854 86.7306 59.57C86.4546 59.282 86.1026 59.138 85.6746 59.138C85.4306 59.138 85.1926 59.194 84.9606 59.306C84.7286 59.418 84.5366 59.598 84.3846 59.846C84.2366 60.094 84.1626 60.418 84.1626 60.818L83.6406 60.668C83.6286 60.204 83.7186 59.798 83.9106 59.45C84.1066 59.102 84.3746 58.832 84.7146 58.64C85.0586 58.444 85.4466 58.346 85.8786 58.346C86.5306 58.346 87.0526 58.548 87.4446 58.952C87.8366 59.352 88.0326 59.894 88.0326 60.578L88.0266 65H87.1446ZM79.4106 65V58.52H80.2026V60.116H80.2986V65H79.4106ZM83.2866 65L83.2926 60.806C83.2926 60.29 83.1546 59.884 82.8786 59.588C82.6066 59.288 82.2466 59.138 81.7986 59.138C81.3506 59.138 80.9886 59.292 80.7126 59.6C80.4366 59.904 80.2986 60.31 80.2986 60.818L79.7706 60.53C79.7706 60.114 79.8686 59.742 80.0646 59.414C80.2606 59.082 80.5286 58.822 80.8686 58.634C81.2086 58.442 81.5946 58.346 82.0266 58.346C82.4386 58.346 82.8046 58.434 83.1246 58.61C83.4486 58.786 83.7026 59.042 83.8866 59.378C84.0706 59.714 84.1626 60.122 84.1626 60.602L84.1566 65H83.2866ZM92.0424 65.18C91.5544 65.18 91.1444 65.092 90.8124 64.916C90.4844 64.74 90.2384 64.506 90.0744 64.214C89.9104 63.922 89.8284 63.604 89.8284 63.26C89.8284 62.908 89.8984 62.608 90.0384 62.36C90.1824 62.108 90.3764 61.902 90.6204 61.742C90.8684 61.582 91.1544 61.46 91.4784 61.376C91.8064 61.296 92.1684 61.226 92.5644 61.166C92.9644 61.102 93.3544 61.048 93.7344 61.004C94.1184 60.956 94.4544 60.91 94.7424 60.866L94.4304 61.058C94.4424 60.418 94.3184 59.944 94.0584 59.636C93.7984 59.328 93.3464 59.174 92.7024 59.174C92.2584 59.174 91.8824 59.274 91.5744 59.474C91.2704 59.674 91.0564 59.99 90.9324 60.422L90.0744 60.17C90.2224 59.59 90.5204 59.14 90.9684 58.82C91.4164 58.5 91.9984 58.34 92.7144 58.34C93.3064 58.34 93.8084 58.452 94.2204 58.676C94.6364 58.896 94.9304 59.216 95.1024 59.636C95.1824 59.824 95.2344 60.034 95.2584 60.266C95.2824 60.498 95.2944 60.734 95.2944 60.974V65H94.5084V63.374L94.7364 63.47C94.5164 64.026 94.1744 64.45 93.7104 64.742C93.2464 65.034 92.6904 65.18 92.0424 65.18ZM92.1444 64.418C92.5564 64.418 92.9164 64.344 93.2244 64.196C93.5324 64.048 93.7804 63.846 93.9684 63.59C94.1564 63.33 94.2784 63.038 94.3344 62.714C94.3824 62.506 94.4084 62.278 94.4124 62.03C94.4164 61.778 94.4184 61.59 94.4184 61.466L94.7544 61.64C94.4544 61.68 94.1284 61.72 93.7764 61.76C93.4284 61.8 93.0844 61.846 92.7444 61.898C92.4084 61.95 92.1044 62.012 91.8324 62.084C91.6484 62.136 91.4704 62.21 91.2984 62.306C91.1264 62.398 90.9844 62.522 90.8724 62.678C90.7644 62.834 90.7104 63.028 90.7104 63.26C90.7104 63.448 90.7564 63.63 90.8484 63.806C90.9444 63.982 91.0964 64.128 91.3044 64.244C91.5164 64.36 91.7964 64.418 92.1444 64.418ZM99.3104 65.18C98.8224 65.18 98.4124 65.092 98.0804 64.916C97.7524 64.74 97.5064 64.506 97.3424 64.214C97.1784 63.922 97.0964 63.604 97.0964 63.26C97.0964 62.908 97.1664 62.608 97.3064 62.36C97.4504 62.108 97.6444 61.902 97.8884 61.742C98.1364 61.582 98.4224 61.46 98.7464 61.376C99.0744 61.296 99.4364 61.226 99.8324 61.166C100.232 61.102 100.622 61.048 101.002 61.004C101.386 60.956 101.722 60.91 102.01 60.866L101.698 61.058C101.71 60.418 101.586 59.944 101.326 59.636C101.066 59.328 100.614 59.174 99.9704 59.174C99.5264 59.174 99.1504 59.274 98.8424 59.474C98.5384 59.674 98.3244 59.99 98.2004 60.422L97.3424 60.17C97.4904 59.59 97.7884 59.14 98.2364 58.82C98.6844 58.5 99.2664 58.34 99.9824 58.34C100.574 58.34 101.076 58.452 101.488 58.676C101.904 58.896 102.198 59.216 102.37 59.636C102.45 59.824 102.502 60.034 102.526 60.266C102.55 60.498 102.562 60.734 102.562 60.974V65H101.776V63.374L102.004 63.47C101.784 64.026 101.442 64.45 100.978 64.742C100.514 65.034 99.9584 65.18 99.3104 65.18ZM99.4124 64.418C99.8244 64.418 100.184 64.344 100.492 64.196C100.8 64.048 101.048 63.846 101.236 63.59C101.424 63.33 101.546 63.038 101.602 62.714C101.65 62.506 101.676 62.278 101.68 62.03C101.684 61.778 101.686 61.59 101.686 61.466L102.022 61.64C101.722 61.68 101.396 61.72 101.044 61.76C100.696 61.8 100.352 61.846 100.012 61.898C99.6764 61.95 99.3724 62.012 99.1004 62.084C98.9164 62.136 98.7384 62.21 98.5664 62.306C98.3944 62.398 98.2524 62.522 98.1404 62.678C98.0324 62.834 97.9784 63.028 97.9784 63.26C97.9784 63.448 98.0244 63.63 98.1164 63.806C98.2124 63.982 98.3644 64.128 98.5724 64.244C98.7844 64.36 99.0644 64.418 99.4124 64.418ZM107.238 65.18C106.634 65.18 106.118 65.03 105.69 64.73C105.262 64.426 104.934 64.016 104.706 63.5C104.478 62.984 104.364 62.402 104.364 61.754C104.364 61.11 104.476 60.53 104.7 60.014C104.928 59.498 105.254 59.09 105.678 58.79C106.102 58.49 106.61 58.34 107.202 58.34C107.81 58.34 108.322 58.488 108.738 58.784C109.154 59.08 109.468 59.486 109.68 60.002C109.896 60.514 110.004 61.098 110.004 61.754C110.004 62.398 109.898 62.98 109.686 63.5C109.474 64.016 109.162 64.426 108.75 64.73C108.338 65.03 107.834 65.18 107.238 65.18ZM107.328 64.358C107.788 64.358 108.168 64.246 108.468 64.022C108.768 63.798 108.992 63.49 109.14 63.098C109.288 62.702 109.362 62.254 109.362 61.754C109.362 61.246 109.288 60.798 109.14 60.41C108.992 60.018 108.768 59.712 108.468 59.492C108.172 59.272 107.798 59.162 107.346 59.162C106.882 59.162 106.498 59.276 106.194 59.504C105.89 59.732 105.664 60.042 105.516 60.434C105.372 60.826 105.3 61.266 105.3 61.754C105.3 62.246 105.374 62.69 105.522 63.086C105.674 63.478 105.9 63.788 106.2 64.016C106.5 64.244 106.876 64.358 107.328 64.358ZM109.362 65V60.122H109.266V56.36H110.154V65H109.362ZM115.56 65V56.18H116.442V65H115.56ZM120.695 65.18C120.207 65.18 119.797 65.092 119.465 64.916C119.137 64.74 118.891 64.506 118.727 64.214C118.563 63.922 118.481 63.604 118.481 63.26C118.481 62.908 118.551 62.608 118.691 62.36C118.835 62.108 119.029 61.902 119.273 61.742C119.521 61.582 119.807 61.46 120.131 61.376C120.459 61.296 120.821 61.226 121.217 61.166C121.617 61.102 122.007 61.048 122.387 61.004C122.771 60.956 123.107 60.91 123.395 60.866L123.083 61.058C123.095 60.418 122.971 59.944 122.711 59.636C122.451 59.328 121.999 59.174 121.355 59.174C120.911 59.174 120.535 59.274 120.227 59.474C119.923 59.674 119.709 59.99 119.585 60.422L118.727 60.17C118.875 59.59 119.173 59.14 119.621 58.82C120.069 58.5 120.651 58.34 121.367 58.34C121.959 58.34 122.461 58.452 122.873 58.676C123.289 58.896 123.583 59.216 123.755 59.636C123.835 59.824 123.887 60.034 123.911 60.266C123.935 60.498 123.947 60.734 123.947 60.974V65H123.161V63.374L123.389 63.47C123.169 64.026 122.827 64.45 122.363 64.742C121.899 65.034 121.343 65.18 120.695 65.18ZM120.797 64.418C121.209 64.418 121.569 64.344 121.877 64.196C122.185 64.048 122.433 63.846 122.621 63.59C122.809 63.33 122.931 63.038 122.987 62.714C123.035 62.506 123.061 62.278 123.065 62.03C123.069 61.778 123.071 61.59 123.071 61.466L123.407 61.64C123.107 61.68 122.781 61.72 122.429 61.76C122.081 61.8 121.737 61.846 121.397 61.898C121.061 61.95 120.757 62.012 120.485 62.084C120.301 62.136 120.123 62.21 119.951 62.306C119.779 62.398 119.637 62.522 119.525 62.678C119.417 62.834 119.363 63.028 119.363 63.26C119.363 63.448 119.409 63.63 119.501 63.806C119.597 63.982 119.749 64.128 119.957 64.244C120.169 64.36 120.449 64.418 120.797 64.418ZM129.019 65.18C128.423 65.18 127.919 65.03 127.507 64.73C127.095 64.426 126.783 64.016 126.571 63.5C126.359 62.98 126.253 62.398 126.253 61.754C126.253 61.098 126.359 60.514 126.571 60.002C126.787 59.486 127.103 59.08 127.519 58.784C127.935 58.488 128.447 58.34 129.055 58.34C129.647 58.34 130.155 58.49 130.579 58.79C131.003 59.09 131.327 59.498 131.551 60.014C131.779 60.53 131.893 61.11 131.893 61.754C131.893 62.402 131.779 62.984 131.551 63.5C131.323 64.016 130.995 64.426 130.567 64.73C130.139 65.03 129.623 65.18 129.019 65.18ZM126.103 65V56.36H126.991V60.122H126.895V65H126.103ZM128.929 64.358C129.381 64.358 129.757 64.244 130.057 64.016C130.357 63.788 130.581 63.478 130.729 63.086C130.881 62.69 130.957 62.246 130.957 61.754C130.957 61.266 130.883 60.826 130.735 60.434C130.587 60.042 130.361 59.732 130.057 59.504C129.757 59.276 129.375 59.162 128.911 59.162C128.459 59.162 128.083 59.272 127.783 59.492C127.487 59.712 127.265 60.018 127.117 60.41C126.969 60.798 126.895 61.246 126.895 61.754C126.895 62.254 126.969 62.702 127.117 63.098C127.265 63.49 127.489 63.798 127.789 64.022C128.089 64.246 128.469 64.358 128.929 64.358ZM136.17 65.174C135.41 65.174 134.784 65.01 134.292 64.682C133.804 64.354 133.504 63.898 133.392 63.314L134.292 63.164C134.388 63.532 134.606 63.826 134.946 64.046C135.29 64.262 135.714 64.37 136.218 64.37C136.71 64.37 137.098 64.268 137.382 64.064C137.666 63.856 137.808 63.574 137.808 63.218C137.808 63.018 137.762 62.856 137.67 62.732C137.582 62.604 137.4 62.486 137.124 62.378C136.848 62.27 136.436 62.142 135.888 61.994C135.3 61.834 134.84 61.674 134.508 61.514C134.176 61.354 133.94 61.17 133.8 60.962C133.66 60.75 133.59 60.492 133.59 60.188C133.59 59.82 133.694 59.498 133.902 59.222C134.11 58.942 134.398 58.726 134.766 58.574C135.134 58.418 135.562 58.34 136.05 58.34C136.538 58.34 136.974 58.42 137.358 58.58C137.746 58.736 138.058 58.956 138.294 59.24C138.53 59.524 138.67 59.854 138.714 60.23L137.814 60.392C137.754 60.012 137.564 59.712 137.244 59.492C136.928 59.268 136.526 59.152 136.038 59.144C135.578 59.132 135.204 59.22 134.916 59.408C134.628 59.592 134.484 59.838 134.484 60.146C134.484 60.318 134.536 60.466 134.64 60.59C134.744 60.71 134.932 60.824 135.204 60.932C135.48 61.04 135.872 61.158 136.38 61.286C136.976 61.438 137.444 61.598 137.784 61.766C138.124 61.934 138.366 62.132 138.51 62.36C138.654 62.588 138.726 62.87 138.726 63.206C138.726 63.818 138.498 64.3 138.042 64.652C137.59 65 136.966 65.174 136.17 65.174ZM146.401 65.18C145.769 65.18 145.221 65.04 144.757 64.76C144.297 64.48 143.939 64.086 143.683 63.578C143.427 63.07 143.299 62.474 143.299 61.79C143.299 61.082 143.425 60.47 143.677 59.954C143.929 59.438 144.283 59.04 144.739 58.76C145.199 58.48 145.741 58.34 146.365 58.34C147.005 58.34 147.551 58.488 148.003 58.784C148.455 59.076 148.797 59.496 149.029 60.044C149.261 60.592 149.367 61.246 149.347 62.006H148.447V61.694C148.431 60.854 148.249 60.22 147.901 59.792C147.557 59.364 147.053 59.15 146.389 59.15C145.693 59.15 145.159 59.376 144.787 59.828C144.419 60.28 144.235 60.924 144.235 61.76C144.235 62.576 144.419 63.21 144.787 63.662C145.159 64.11 145.685 64.334 146.365 64.334C146.829 64.334 147.233 64.228 147.577 64.016C147.925 63.8 148.199 63.49 148.399 63.086L149.221 63.404C148.965 63.968 148.587 64.406 148.087 64.718C147.591 65.026 147.029 65.18 146.401 65.18ZM143.923 62.006V61.268H148.873V62.006H143.923ZM150.324 65L152.856 61.724L150.378 58.52H151.434L153.372 61.046L155.292 58.52H156.348L153.87 61.724L156.408 65H155.346L153.372 62.402L151.386 65H150.324ZM160.882 65.18C160.286 65.18 159.782 65.03 159.37 64.73C158.958 64.426 158.646 64.016 158.434 63.5C158.222 62.98 158.116 62.398 158.116 61.754C158.116 61.098 158.222 60.514 158.434 60.002C158.65 59.486 158.966 59.08 159.382 58.784C159.798 58.488 160.31 58.34 160.918 58.34C161.51 58.34 162.018 58.49 162.442 58.79C162.866 59.09 163.19 59.498 163.414 60.014C163.642 60.53 163.756 61.11 163.756 61.754C163.756 62.402 163.642 62.984 163.414 63.5C163.186 64.016 162.858 64.426 162.43 64.73C162.002 65.03 161.486 65.18 160.882 65.18ZM157.966 67.88V58.52H158.758V63.398H158.854V67.88H157.966ZM160.792 64.358C161.244 64.358 161.62 64.244 161.92 64.016C162.22 63.788 162.444 63.478 162.592 63.086C162.744 62.69 162.82 62.246 162.82 61.754C162.82 61.266 162.746 60.826 162.598 60.434C162.45 60.042 162.224 59.732 161.92 59.504C161.62 59.276 161.238 59.162 160.774 59.162C160.322 59.162 159.946 59.272 159.646 59.492C159.35 59.712 159.128 60.018 158.98 60.41C158.832 60.798 158.758 61.246 158.758 61.754C158.758 62.254 158.832 62.702 158.98 63.098C159.128 63.49 159.352 63.798 159.652 64.022C159.952 64.246 160.332 64.358 160.792 64.358ZM168.416 65.18C167.784 65.18 167.236 65.04 166.772 64.76C166.312 64.48 165.954 64.086 165.698 63.578C165.442 63.07 165.314 62.474 165.314 61.79C165.314 61.082 165.44 60.47 165.692 59.954C165.944 59.438 166.298 59.04 166.754 58.76C167.214 58.48 167.756 58.34 168.38 58.34C169.02 58.34 169.566 58.488 170.018 58.784C170.47 59.076 170.812 59.496 171.044 60.044C171.276 60.592 171.382 61.246 171.362 62.006H170.462V61.694C170.446 60.854 170.264 60.22 169.916 59.792C169.572 59.364 169.068 59.15 168.404 59.15C167.708 59.15 167.174 59.376 166.802 59.828C166.434 60.28 166.25 60.924 166.25 61.76C166.25 62.576 166.434 63.21 166.802 63.662C167.174 64.11 167.7 64.334 168.38 64.334C168.844 64.334 169.248 64.228 169.592 64.016C169.94 63.8 170.214 63.49 170.414 63.086L171.236 63.404C170.98 63.968 170.602 64.406 170.102 64.718C169.606 65.026 169.044 65.18 168.416 65.18ZM165.938 62.006V61.268H170.888V62.006H165.938ZM173.293 65V58.52H174.085V60.08L173.929 59.876C174.001 59.684 174.095 59.508 174.211 59.348C174.327 59.184 174.453 59.05 174.589 58.946C174.757 58.798 174.953 58.686 175.177 58.61C175.401 58.53 175.627 58.484 175.855 58.472C176.083 58.456 176.291 58.472 176.479 58.52V59.348C176.243 59.288 175.985 59.274 175.705 59.306C175.425 59.338 175.167 59.45 174.931 59.642C174.715 59.81 174.553 60.012 174.445 60.248C174.337 60.48 174.265 60.728 174.229 60.992C174.193 61.252 174.175 61.51 174.175 61.766V65H173.293ZM178.337 57.29V56.3H179.219V57.29H178.337ZM178.337 65V58.52H179.219V65H178.337ZM184.36 65.18C183.728 65.18 183.18 65.04 182.716 64.76C182.256 64.48 181.898 64.086 181.642 63.578C181.386 63.07 181.258 62.474 181.258 61.79C181.258 61.082 181.384 60.47 181.636 59.954C181.888 59.438 182.242 59.04 182.698 58.76C183.158 58.48 183.7 58.34 184.324 58.34C184.964 58.34 185.51 58.488 185.962 58.784C186.414 59.076 186.756 59.496 186.988 60.044C187.22 60.592 187.326 61.246 187.306 62.006H186.406V61.694C186.39 60.854 186.208 60.22 185.86 59.792C185.516 59.364 185.012 59.15 184.348 59.15C183.652 59.15 183.118 59.376 182.746 59.828C182.378 60.28 182.194 60.924 182.194 61.76C182.194 62.576 182.378 63.21 182.746 63.662C183.118 64.11 183.644 64.334 184.324 64.334C184.788 64.334 185.192 64.228 185.536 64.016C185.884 63.8 186.158 63.49 186.358 63.086L187.18 63.404C186.924 63.968 186.546 64.406 186.046 64.718C185.55 65.026 184.988 65.18 184.36 65.18ZM181.882 62.006V61.268H186.832V62.006H181.882ZM193.742 65V61.694C193.742 61.334 193.708 61.004 193.64 60.704C193.572 60.4 193.462 60.136 193.31 59.912C193.162 59.684 192.968 59.508 192.728 59.384C192.492 59.26 192.204 59.198 191.864 59.198C191.552 59.198 191.276 59.252 191.036 59.36C190.8 59.468 190.6 59.624 190.436 59.828C190.276 60.028 190.154 60.272 190.07 60.56C189.986 60.848 189.944 61.176 189.944 61.544L189.32 61.406C189.32 60.742 189.436 60.184 189.668 59.732C189.9 59.28 190.22 58.938 190.628 58.706C191.036 58.474 191.504 58.358 192.032 58.358C192.42 58.358 192.758 58.418 193.046 58.538C193.338 58.658 193.584 58.82 193.784 59.024C193.988 59.228 194.152 59.462 194.276 59.726C194.4 59.986 194.49 60.264 194.546 60.56C194.602 60.852 194.63 61.144 194.63 61.436V65H193.742ZM189.056 65V58.52H189.854V60.116H189.944V65H189.056ZM199.44 65.18C198.788 65.18 198.236 65.034 197.784 64.742C197.332 64.45 196.988 64.048 196.752 63.536C196.52 63.02 196.4 62.428 196.392 61.76C196.4 61.08 196.524 60.484 196.764 59.972C197.004 59.456 197.35 59.056 197.802 58.772C198.254 58.484 198.802 58.34 199.446 58.34C200.102 58.34 200.672 58.5 201.156 58.82C201.644 59.14 201.978 59.578 202.158 60.134L201.294 60.41C201.142 60.022 200.9 59.722 200.568 59.51C200.24 59.294 199.864 59.186 199.44 59.186C198.964 59.186 198.57 59.296 198.258 59.516C197.946 59.732 197.714 60.034 197.562 60.422C197.41 60.81 197.332 61.256 197.328 61.76C197.336 62.536 197.516 63.16 197.868 63.632C198.22 64.1 198.744 64.334 199.44 64.334C199.88 64.334 200.254 64.234 200.562 64.034C200.874 63.83 201.11 63.534 201.27 63.146L202.158 63.41C201.918 63.986 201.566 64.426 201.102 64.73C200.638 65.03 200.084 65.18 199.44 65.18ZM206.562 65.18C205.93 65.18 205.382 65.04 204.918 64.76C204.458 64.48 204.1 64.086 203.844 63.578C203.588 63.07 203.46 62.474 203.46 61.79C203.46 61.082 203.586 60.47 203.838 59.954C204.09 59.438 204.444 59.04 204.9 58.76C205.36 58.48 205.902 58.34 206.526 58.34C207.166 58.34 207.712 58.488 208.164 58.784C208.616 59.076 208.958 59.496 209.19 60.044C209.422 60.592 209.528 61.246 209.508 62.006H208.608V61.694C208.592 60.854 208.41 60.22 208.062 59.792C207.718 59.364 207.214 59.15 206.55 59.15C205.854 59.15 205.32 59.376 204.948 59.828C204.58 60.28 204.396 60.924 204.396 61.76C204.396 62.576 204.58 63.21 204.948 63.662C205.32 64.11 205.846 64.334 206.526 64.334C206.99 64.334 207.394 64.228 207.738 64.016C208.086 63.8 208.36 63.49 208.56 63.086L209.382 63.404C209.126 63.968 208.748 64.406 208.248 64.718C207.752 65.026 207.19 65.18 206.562 65.18ZM204.084 62.006V61.268H209.034V62.006H204.084Z" fill="white"/>
<path fill-rule="evenodd" clip-rule="evenodd" d="M81.0215 22.8061C80.1012 22.8061 79.3442 22.4983 78.7505 21.8827C78.1568 21.2671 77.8599 20.4822 77.8599 19.528C77.8599 18.5739 78.1568 17.789 78.7505 17.1734C79.3442 16.5578 80.1012 16.25 81.0215 16.25C81.9418 16.25 82.684 16.5578 83.248 17.1734C83.8418 17.789 84.1386 18.5739 84.1386 19.528C84.1386 20.4822 83.8418 21.2671 83.248 21.8827C82.6543 22.4983 81.9121 22.8061 81.0215 22.8061ZM79.0177 49.6306C78.8692 49.6306 78.7357 49.5845 78.6169 49.4921C78.5279 49.369 78.4833 49.2305 78.4833 49.0766V26.592C78.4833 26.4381 78.5279 26.315 78.6169 26.2226C78.7357 26.0995 78.8692 26.038 79.0177 26.038H83.1144C83.2629 26.038 83.3816 26.0995 83.4707 26.2226C83.5894 26.315 83.6488 26.4381 83.6488 26.592V49.0766C83.6488 49.2305 83.5894 49.369 83.4707 49.4921C83.3816 49.5845 83.2629 49.6306 83.1144 49.6306H79.0177ZM42.3601 47.6915C43.8741 49.2305 45.8631 50 48.3271 50C50.7911 50 52.7801 49.2151 54.2941 47.6453C55.8082 46.0448 56.5652 43.9364 56.5652 41.3201C56.5652 39.8735 56.3128 38.6269 55.8082 37.5804C55.3035 36.5339 54.591 35.5797 53.6707 34.7179C52.7504 33.8252 51.3848 32.6864 49.574 31.3013C47.7928 29.947 46.5904 28.8851 45.967 28.1156C45.3733 27.3461 45.0764 26.4073 45.0764 25.2992C45.0764 24.1296 45.403 23.314 45.967 22.6676C46.5311 21.9904 47.2139 21.5595 48.1045 21.5595C49.0544 21.5595 49.8114 21.9289 50.3755 22.6676C50.9692 23.3755 51.2661 24.3297 51.2661 25.5301V26.7305C51.2661 28.4234 51.3106 28.5619 51.3997 28.685C51.5184 28.7774 51.652 28.8235 51.8005 28.8235H55.8082C55.9566 28.8235 56.0753 28.7774 56.1644 28.685C56.2831 28.5619 56.3425 28.4234 56.3425 26.7305V25.6224C56.3425 23.0062 55.5855 20.9131 54.0715 19.3434C52.5575 17.7428 50.5685 16.9425 48.1045 16.9425C45.6702 16.9425 43.7108 17.6966 42.2265 19.2049C40.7422 20.7131 40 22.7445 40 25.2992C40 26.8998 40.2969 28.3157 40.8906 29.5469C41.514 30.7473 42.271 31.7784 43.1616 32.6402C44.0819 33.5021 45.2842 34.487 46.7686 35.5951C48.0748 36.58 49.0247 37.3341 49.6185 37.8574C50.2122 38.3806 50.6724 38.9347 50.9989 39.5195C51.3255 40.1043 51.4887 40.7969 51.4887 41.5971C51.4887 42.736 51.1919 43.6594 50.5981 44.3673C50.0044 45.0445 49.2474 45.383 48.3271 45.383C47.4068 45.383 46.6498 45.0137 46.0561 44.275C45.492 43.5363 45.21 42.5667 45.21 41.3663V38.9039C45.21 38.75 45.1506 38.6269 45.0319 38.5345C44.9428 38.4114 44.8241 38.3499 44.6757 38.3499H40.6234C40.475 38.3499 40.3414 38.4114 40.2226 38.5345C40.1336 38.6269 40.0891 38.75 40.0891 38.9039V41.6433C40.0891 44.1365 40.8461 46.1525 42.3601 47.6915ZM59.6196 49.4921C59.7384 49.5845 59.872 49.6306 60.0204 49.6306H64.1172C64.2656 49.6306 64.3844 49.5845 64.4734 49.4921C64.5922 49.369 64.6515 49.2305 64.6515 49.0766V42.1973C64.6515 42.1358 64.6812 42.0434 64.7406 41.9203L66.8335 38.6884C66.8632 38.5961 66.9077 38.5653 66.9671 38.5961C67.0265 38.5961 67.071 38.6423 67.1007 38.7346L70.3959 49.1689C70.485 49.4767 70.6779 49.6306 70.9748 49.6306H75.2051C75.5317 49.6306 75.695 49.4921 75.695 49.2151C75.695 49.1228 75.6801 49.0458 75.6504 48.9843L70.3068 34.3023C70.2772 34.21 70.292 34.1023 70.3514 33.9791L74.9825 26.7305C75.1012 26.5458 75.1309 26.3919 75.0716 26.2688C75.0122 26.1149 74.8786 26.038 74.6708 26.038H70.3959C70.099 26.038 69.8912 26.1611 69.7725 26.4073L64.9187 34.3485C64.8593 34.4408 64.8 34.487 64.7406 34.487C64.6812 34.487 64.6515 34.4254 64.6515 34.3023V17.8659C64.6515 17.712 64.5922 17.5889 64.4734 17.4966C64.3844 17.3735 64.2656 17.3119 64.1172 17.3119H60.0204C59.872 17.3119 59.7384 17.3735 59.6196 17.4966C59.5306 17.5889 59.4861 17.712 59.4861 17.8659V49.0766C59.4861 49.2305 59.5306 49.369 59.6196 49.4921ZM87.3824 49.4921C87.5011 49.5845 87.6347 49.6306 87.7831 49.6306H91.8799C92.0283 49.6306 92.1471 49.5845 92.2361 49.4921C92.3549 49.369 92.4143 49.2305 92.4143 49.0766V17.8659C92.4143 17.712 92.3549 17.5889 92.2361 17.4966C92.1471 17.3735 92.0283 17.3119 91.8799 17.3119H87.7831C87.6347 17.3119 87.5011 17.3735 87.3824 17.4966C87.2933 17.5889 87.2488 17.712 87.2488 17.8659V49.0766C87.2488 49.2305 87.2933 49.369 87.3824 49.4921ZM96.2091 49.6306C96.0606 49.6306 95.927 49.5845 95.8083 49.4921C95.7192 49.369 95.6747 49.2305 95.6747 49.0766V17.8659C95.6747 17.712 95.7192 17.5889 95.8083 17.4966C95.927 17.3735 96.0606 17.3119 96.2091 17.3119H100.306C100.454 17.3119 100.573 17.3735 100.662 17.4966C100.781 17.5889 100.84 17.712 100.84 17.8659V49.0766C100.84 49.2305 100.781 49.369 100.662 49.4921C100.573 49.5845 100.454 49.6306 100.306 49.6306H96.2091ZM119.196 47.3222C120.799 45.7832 121.601 43.5978 121.601 40.7661C121.601 38.9809 121.274 37.4419 120.621 36.1491C119.968 34.8564 119.063 33.8252 117.905 33.0557C117.816 32.9634 117.846 32.8711 117.994 32.7787C120.161 31.4244 121.245 29.1621 121.245 25.9918C121.245 23.1601 120.443 21.0055 118.84 19.528C117.237 18.0506 115.025 17.3119 112.205 17.3119H105.169C105.021 17.3119 104.887 17.3735 104.769 17.4966C104.679 17.5889 104.635 17.712 104.635 17.8659V49.0766C104.635 49.2305 104.679 49.369 104.769 49.4921C104.887 49.5845 105.021 49.6306 105.169 49.6306H113.007C115.56 49.6306 117.623 48.8612 119.196 47.3222ZM109.8 22.1597C109.8 22.0058 109.875 21.9289 110.023 21.9289H112.294C113.511 21.9289 114.461 22.329 115.144 23.1293C115.827 23.9295 116.168 25.0684 116.168 26.5458C116.168 27.9617 115.827 29.0544 115.144 29.8239C114.461 30.5934 113.511 30.9781 112.294 30.9781H110.023C109.875 30.9781 109.8 30.9012 109.8 30.7473V22.1597ZM115.411 43.6748C114.728 44.5366 113.793 44.9675 112.606 44.9675H110.023C109.875 44.9675 109.8 44.8906 109.8 44.7367V35.1334C109.8 34.9795 109.875 34.9025 110.023 34.9025H112.606C113.793 34.9025 114.728 35.3642 115.411 36.2876C116.094 37.1802 116.435 38.4268 116.435 40.0274C116.435 41.5971 116.094 42.8129 115.411 43.6748ZM134.689 26.592C134.689 26.4381 134.733 26.315 134.822 26.2226C134.941 26.0995 135.075 26.038 135.223 26.038H139.32C139.468 26.038 139.587 26.0995 139.676 26.2226C139.795 26.315 139.854 26.4381 139.854 26.592V49.0766C139.854 49.2305 139.795 49.369 139.676 49.4921C139.587 49.5845 139.468 49.6306 139.32 49.6306H135.223C135.075 49.6306 134.941 49.5845 134.822 49.4921C134.733 49.369 134.689 49.2305 134.689 49.0766V48.0609C134.689 47.9685 134.659 47.907 134.6 47.8762C134.54 47.8454 134.481 47.8762 134.422 47.9685C133.561 49.2921 132.18 49.9538 130.28 49.9538C128.47 49.9538 127 49.3998 125.872 48.2917C124.774 47.1529 124.224 45.4138 124.224 43.0746V26.592C124.224 26.4381 124.269 26.315 124.358 26.2226C124.477 26.0995 124.61 26.038 124.759 26.038H128.855C129.004 26.038 129.123 26.0995 129.212 26.2226C129.33 26.315 129.39 26.4381 129.39 26.592V41.9203C129.39 44.2288 130.251 45.383 131.973 45.383C132.833 45.383 133.501 45.0599 133.976 44.4135C134.451 43.7363 134.689 42.8283 134.689 41.6895V26.592ZM143.928 21.8827C144.522 22.4983 145.279 22.8061 146.199 22.8061C147.089 22.8061 147.832 22.4983 148.425 21.8827C149.019 21.2671 149.316 20.4822 149.316 19.528C149.316 18.5739 149.019 17.789 148.425 17.1734C147.861 16.5578 147.119 16.25 146.199 16.25C145.279 16.25 144.522 16.5578 143.928 17.1734C143.334 17.789 143.037 18.5739 143.037 19.528C143.037 20.4822 143.334 21.2671 143.928 21.8827ZM143.794 49.4921C143.913 49.5845 144.047 49.6306 144.195 49.6306H148.292C148.44 49.6306 148.559 49.5845 148.648 49.4921C148.767 49.369 148.826 49.2305 148.826 49.0766V26.592C148.826 26.4381 148.767 26.315 148.648 26.2226C148.559 26.0995 148.44 26.038 148.292 26.038H144.195C144.047 26.038 143.913 26.0995 143.794 26.2226C143.705 26.315 143.661 26.4381 143.661 26.592V49.0766C143.661 49.2305 143.705 49.369 143.794 49.4921ZM152.96 49.6306C152.812 49.6306 152.678 49.5845 152.56 49.4921C152.471 49.369 152.426 49.2305 152.426 49.0766V17.8659C152.426 17.712 152.471 17.5889 152.56 17.4966C152.678 17.3735 152.812 17.3119 152.96 17.3119H157.057C157.206 17.3119 157.324 17.3735 157.413 17.4966C157.532 17.5889 157.592 17.712 157.592 17.8659V49.0766C157.592 49.2305 157.532 49.369 157.413 49.4921C157.324 49.5845 157.206 49.6306 157.057 49.6306H152.96ZM171.361 17.4966C171.272 17.5889 171.228 17.712 171.228 17.8659V27.1922C171.228 27.2845 171.198 27.3461 171.138 27.3769C171.079 27.4077 171.02 27.3923 170.96 27.3307C170.396 26.7459 169.758 26.3304 169.046 26.0841C168.333 25.8071 167.635 25.6686 166.953 25.6686C164.993 25.6686 163.45 26.3304 162.322 27.6539C161.223 28.9774 160.674 30.8088 160.674 33.1481V42.5205C160.674 44.7982 161.223 46.6142 162.322 47.9685C163.42 49.3228 164.964 50 166.953 50C168.556 50 169.892 49.4614 170.96 48.3841C171.02 48.3225 171.079 48.3071 171.138 48.3379C171.198 48.3687 171.228 48.4302 171.228 48.5226V49.0766C171.228 49.2305 171.272 49.369 171.361 49.4921C171.48 49.5845 171.613 49.6306 171.762 49.6306H175.859C176.007 49.6306 176.126 49.5845 176.215 49.4921C176.334 49.369 176.393 49.2305 176.393 49.0766V17.8659C176.393 17.712 176.334 17.5889 176.215 17.4966C176.126 17.3735 176.007 17.3119 175.859 17.3119H171.762C171.613 17.3119 171.48 17.3735 171.361 17.4966ZM170.337 44.6905C169.862 45.1522 169.268 45.383 168.556 45.383C167.724 45.383 167.057 45.0906 166.552 44.5058C166.047 43.8902 165.795 43.0899 165.795 42.105V33.5636C165.795 32.5787 166.047 31.7938 166.552 31.209C167.057 30.5934 167.724 30.2856 168.556 30.2856C169.268 30.2856 169.862 30.5318 170.337 31.0243C170.812 31.486 171.109 32.117 171.228 32.9172V42.7514C171.109 43.5516 170.812 44.198 170.337 44.6905ZM195.431 39.2425C195.431 39.3964 195.371 39.5349 195.253 39.658C195.163 39.7503 195.045 39.7965 194.896 39.7965H185.055C184.907 39.7965 184.832 39.8735 184.832 40.0274V42.105C184.832 43.0592 185.085 43.8441 185.589 44.4596C186.094 45.0752 186.747 45.383 187.549 45.383C188.232 45.383 188.811 45.1676 189.285 44.7367C189.79 44.275 190.117 43.6902 190.265 42.9822C190.354 42.6744 190.547 42.5205 190.844 42.5205L194.807 42.7052C194.956 42.7052 195.074 42.7668 195.163 42.8899C195.282 42.9822 195.327 43.1207 195.297 43.3054C195.089 45.46 194.332 47.1221 193.026 48.2917C191.72 49.4306 189.894 50 187.549 50C185.115 50 183.185 49.3382 181.76 48.0147C180.365 46.6604 179.667 44.829 179.667 42.5205V33.1481C179.667 30.9012 180.365 29.1005 181.76 27.7462C183.185 26.3611 185.115 25.6686 187.549 25.6686C189.983 25.6686 191.898 26.3611 193.293 27.7462C194.718 29.1005 195.431 30.9012 195.431 33.1481V39.2425ZM187.549 30.2856C186.747 30.2856 186.094 30.5934 185.589 31.209C185.085 31.8246 184.832 32.6094 184.832 33.5636V35.6412C184.832 35.7951 184.907 35.8721 185.055 35.8721H190.087C190.235 35.8721 190.31 35.7951 190.31 35.6412V33.5636C190.31 32.5787 190.057 31.7938 189.553 31.209C189.048 30.5934 188.38 30.2856 187.549 30.2856ZM209.715 26.2226C209.27 25.9148 208.646 25.7609 207.845 25.7609C206.034 25.7609 204.728 26.7613 203.926 28.762C203.896 28.8851 203.852 28.9466 203.793 28.9466C203.733 28.9159 203.703 28.8389 203.703 28.7158V26.592C203.703 26.4381 203.644 26.315 203.525 26.2226C203.436 26.0995 203.318 26.038 203.169 26.038H199.072C198.924 26.038 198.79 26.0995 198.672 26.2226C198.583 26.315 198.538 26.4381 198.538 26.592V49.0304C198.538 49.1843 198.583 49.3228 198.672 49.446C198.79 49.5383 198.924 49.5845 199.072 49.5845H203.169C203.318 49.5845 203.436 49.5383 203.525 49.446C203.644 49.3228 203.703 49.1843 203.703 49.0304V35.9644C203.703 34.7948 203.956 33.7945 204.46 32.9634C204.995 32.1016 205.678 31.6091 206.509 31.486C206.806 31.3936 207.132 31.3475 207.489 31.3475C207.845 31.3475 208.231 31.409 208.646 31.5321C209.032 31.686 209.24 31.5783 209.27 31.209L209.982 26.9152C210.042 26.6074 209.952 26.3765 209.715 26.2226ZM20.5922 17.5C20.8789 17.5 21.1113 17.7335 21.1113 18.0215V21.4428C21.1113 21.7308 20.8789 21.9643 20.5922 21.9643H2.74156C2.45484 21.9643 2.2224 21.7308 2.2224 21.4428V18.0215C2.2224 17.7335 2.45484 17.5 2.74156 17.5H20.5922ZM9.40785 48.75C9.12112 48.75 8.88869 48.5165 8.88869 48.2285V44.8072C8.88869 44.5192 9.12112 44.2857 9.40785 44.2857H27.2584C27.5452 44.2857 27.7776 44.5192 27.7776 44.8072V48.2285C27.7776 48.5165 27.5452 48.75 27.2584 48.75H9.40785ZM0 39.2999C0 39.5879 0.232436 39.8214 0.51916 39.8214H4.44428L4.44429 39.8214L4.44431 39.8214H20.5918C20.8785 39.8214 21.111 39.588 21.111 39.3V35.8786C21.111 35.5906 20.8785 35.3572 20.5918 35.3572H4.96361C4.67689 35.3572 4.44445 35.1237 4.44445 34.8357L4.44445 26.95C4.44445 26.662 4.21201 26.4286 3.92529 26.4286H0.51916C0.232436 26.4286 0 26.662 0 26.95V39.2999ZM30 39.2999C30 39.5879 29.7676 39.8214 29.4808 39.8214L26.0747 39.8214C25.788 39.8214 25.5555 39.5879 25.5555 39.2999L25.5556 31.4143C25.5556 31.1263 25.3231 30.8928 25.0364 30.8928H9.40825C9.12153 30.8928 8.8891 30.6593 8.8891 30.3713V26.95C8.8891 26.662 9.12153 26.4285 9.40826 26.4285H25.5556H25.5558H29.4808C29.7676 26.4285 30 26.662 30 26.95V39.2999Z" fill="white"/>
<rect x="185" width="32.5" height="17.5" rx="1" fill="white"/>
<path d="M195.239 10.735C195.239 11.5783 194.991 12.2292 194.496 12.6875C194.01 13.1458 193.373 13.375 192.585 13.375H190.165C190.119 13.375 190.078 13.3613 190.041 13.3338C190.014 13.2971 190 13.2558 190 13.21V3.915C190 3.86917 190.014 3.8325 190.041 3.805C190.078 3.76833 190.119 3.75 190.165 3.75H192.337C193.208 3.75 193.891 3.97 194.386 4.41C194.881 4.85 195.129 5.49167 195.129 6.335C195.129 7.27917 194.794 7.95292 194.125 8.35625C194.079 8.38375 194.07 8.41125 194.098 8.43875C194.455 8.66792 194.735 8.975 194.936 9.36C195.138 9.745 195.239 10.2033 195.239 10.735ZM191.664 5.125C191.618 5.125 191.595 5.14792 191.595 5.19375V7.75125C191.595 7.79708 191.618 7.82 191.664 7.82H192.365C192.741 7.82 193.034 7.70542 193.245 7.47625C193.456 7.24708 193.561 6.92167 193.561 6.5C193.561 6.06 193.456 5.72083 193.245 5.4825C193.034 5.24417 192.741 5.125 192.365 5.125H191.664ZM192.461 11.9863C192.828 11.9863 193.117 11.8579 193.327 11.6013C193.538 11.3446 193.644 10.9825 193.644 10.515C193.644 10.0383 193.538 9.66708 193.327 9.40125C193.117 9.12625 192.828 8.98875 192.461 8.98875H191.664C191.618 8.98875 191.595 9.01167 191.595 9.0575V11.9175C191.595 11.9633 191.618 11.9863 191.664 11.9863H192.461Z" fill="#003647"/>
<path d="M201.096 4.96C201.096 5.00583 201.078 5.04708 201.041 5.08375C201.014 5.11125 200.977 5.125 200.931 5.125H197.961C197.916 5.125 197.893 5.14792 197.893 5.19375V7.7925C197.893 7.83833 197.916 7.86125 197.961 7.86125H199.721C199.767 7.86125 199.804 7.87958 199.831 7.91625C199.868 7.94375 199.886 7.98042 199.886 8.02625V9.085C199.886 9.13083 199.868 9.17208 199.831 9.20875C199.804 9.23625 199.767 9.25 199.721 9.25H197.961C197.916 9.25 197.893 9.27292 197.893 9.31875V11.9313C197.893 11.9771 197.916 12 197.961 12H200.931C200.977 12 201.014 12.0183 201.041 12.055C201.078 12.0825 201.096 12.1192 201.096 12.165V13.21C201.096 13.2558 201.078 13.2971 201.041 13.3338C201.014 13.3613 200.977 13.375 200.931 13.375H196.463C196.417 13.375 196.376 13.3613 196.339 13.3338C196.311 13.2971 196.298 13.2558 196.298 13.21V3.915C196.298 3.86917 196.311 3.8325 196.339 3.805C196.376 3.76833 196.417 3.75 196.463 3.75H200.931C200.977 3.75 201.014 3.76833 201.041 3.805C201.078 3.8325 201.096 3.86917 201.096 3.915V4.96Z" fill="#003647"/>
<path d="M207.209 3.75C207.255 3.75 207.292 3.76833 207.319 3.805C207.356 3.8325 207.374 3.86917 207.374 3.915V4.96C207.374 5.00583 207.356 5.04708 207.319 5.08375C207.292 5.11125 207.255 5.125 207.209 5.125H205.463C205.417 5.125 205.394 5.14792 205.394 5.19375V13.21C205.394 13.2558 205.376 13.2971 205.339 13.3338C205.312 13.3613 205.275 13.375 205.229 13.375H203.964C203.918 13.375 203.877 13.3613 203.84 13.3338C203.813 13.2971 203.799 13.2558 203.799 13.21V5.19375C203.799 5.14792 203.776 5.125 203.73 5.125H202.08C202.035 5.125 201.993 5.11125 201.957 5.08375C201.929 5.04708 201.915 5.00583 201.915 4.96V3.915C201.915 3.86917 201.929 3.8325 201.957 3.805C201.993 3.76833 202.035 3.75 202.08 3.75H207.209Z" fill="#003647"/>
<path d="M211.737 13.375C211.627 13.375 211.567 13.3246 211.558 13.2238L211.297 11.78C211.297 11.7342 211.27 11.7113 211.215 11.7113H209.207C209.152 11.7113 209.125 11.7342 209.125 11.78L208.863 13.2238C208.854 13.3246 208.795 13.375 208.685 13.375H207.433C207.305 13.375 207.255 13.3154 207.282 13.1963L209.317 3.90125C209.335 3.80042 209.395 3.75 209.496 3.75H210.953C211.054 3.75 211.114 3.80042 211.132 3.90125L213.167 13.1963V13.2513C213.167 13.3338 213.117 13.375 213.016 13.375H211.737ZM209.372 10.3913C209.363 10.4371 209.386 10.46 209.441 10.46H210.967C211.022 10.46 211.045 10.4371 211.036 10.3913L210.238 6.04625C210.229 6.01875 210.215 6.005 210.197 6.005C210.179 6.005 210.165 6.01875 210.156 6.04625L209.372 10.3913Z" fill="#003647"/>
</svg>
