<svg width="19" height="20" viewBox="0 0 19 20" fill="none" xmlns="http://www.w3.org/2000/svg">
<path d="M0.391 19.5211L3.50623 19.5211C3.72198 19.5211 3.89687 19.3462 3.89687 19.1305L3.89687 19.0209C4.6142 19.0776 5.33857 19.2776 6.09863 19.4881C7.00761 19.7398 7.94757 20 8.89956 20L13.2803 20C14.4787 20 15.4484 19.3683 15.8741 18.3101C16.1166 17.7075 16.1272 17.0859 15.9257 16.6227C16.2228 16.4092 16.4701 16.1129 16.6501 15.7449C16.9752 15.0804 17.0076 14.328 16.7592 13.7486C17.1849 13.4149 17.4477 12.9353 17.5675 12.4733C17.7078 11.9322 17.6679 11.4052 17.4807 11.0027C18.2014 10.7132 18.7129 10.0224 18.7129 9.22937C18.7129 8.6847 18.5018 8.1837 18.1184 7.81881C17.7482 7.46641 17.2538 7.27234 16.7261 7.27238L10.3818 7.27257C9.73861 6.57298 9.52404 5.55017 9.86346 4.73322C10.3725 3.50814 10.3439 2.51877 9.76772 1.42513C9.35176 0.63557 8.34946 -1.63192e-07 7.57185 -2.31173e-07C7.50939 -2.36634e-07 7.44837 0.00406178 7.38927 0.0125387C6.91015 0.0809786 6.57611 0.411108 6.47279 0.918275C6.43877 1.08516 6.42861 1.28192 6.41677 1.50974C6.38404 2.14184 6.33919 3.00753 5.78558 4.06812C5.4624 4.68728 5.35079 5.34664 5.25231 5.92842C5.07117 6.99862 4.9634 7.63399 3.89687 7.75056L3.89687 7.64438C3.89687 7.42867 3.72198 7.25374 3.50623 7.25374L0.391001 7.25374C0.175251 7.25374 0.000361216 7.42867 0.000361197 7.64438L0.000360193 19.1305C0.000360174 19.3462 0.175249 19.5211 0.391 19.5211V19.5211ZM0.78164 8.03498L3.11559 8.03498L3.11559 11.6294C3.11559 11.8451 3.29048 12.0201 3.50623 12.0201C3.72198 12.0201 3.89687 11.8451 3.89687 11.6294L3.89687 8.53457C5.63014 8.37742 5.83792 7.14987 6.02262 6.05882C6.11578 5.50845 6.21212 4.93936 6.47818 4.42962C7.11059 3.21805 7.16262 2.21434 7.197 1.55013C7.20719 1.35364 7.21598 1.18395 7.23833 1.07426C7.28692 0.835812 7.39876 0.800381 7.49978 0.785966C7.92999 0.724558 8.75795 1.18469 9.07648 1.78932C9.54482 2.67834 9.56318 3.41966 9.14195 4.43348C8.76901 5.33113 8.88839 6.40742 9.41079 7.27261L8.92917 7.27261C8.71346 7.27261 8.53853 7.44754 8.53853 7.66325C8.53853 7.879 8.71346 8.05389 8.92917 8.05389L16.7261 8.05366C17.0523 8.05366 17.3554 8.1712 17.5796 8.38469C17.8066 8.60071 17.9316 8.90072 17.9316 9.2294C17.9316 9.84212 17.4045 10.352 16.7566 10.3661L14.8034 10.4086C14.5877 10.4133 14.4166 10.592 14.4213 10.8077C14.4259 11.0204 14.5999 11.1898 14.8117 11.1898C14.8146 11.1898 14.8175 11.1898 14.8204 11.1897L16.647 11.1499C16.8586 11.3435 16.9318 11.812 16.8112 12.2772C16.7426 12.5416 16.4405 13.4044 15.4317 13.4044C15.216 13.4044 15.0411 13.5793 15.0411 13.795C15.0411 14.0107 15.216 14.1856 15.4317 14.1856C15.6598 14.1856 15.8688 14.156 16.0592 14.1027C16.1951 14.4684 16.1592 14.9705 15.9483 15.4016C15.8401 15.6229 15.6227 15.9511 15.2354 16.1211C15.224 16.1253 15.2126 16.1301 15.2016 16.1354C15.0534 16.1953 14.8813 16.2322 14.6821 16.2322C14.4664 16.2322 14.2915 16.4071 14.2915 16.6228C14.2915 16.8386 14.4664 17.0135 14.6821 17.0135C14.867 17.0135 15.0453 16.9919 15.2154 16.95C15.3147 17.1946 15.3223 17.5884 15.1493 18.0186C15.0041 18.3794 14.5314 19.2187 13.2803 19.2187L8.89956 19.2187C8.05375 19.2187 7.20535 18.9838 6.30712 18.7351C5.52271 18.5179 4.71522 18.2947 3.89687 18.2375L3.89687 15.1451C3.89687 14.9294 3.72198 14.7545 3.50623 14.7545C3.29048 14.7545 3.11559 14.9294 3.11559 15.1451L3.11559 18.7398L0.781639 18.7398L0.78164 8.03498Z" fill="#1F5462"/>
<path d="M3.50488 13.7781C3.72062 13.7781 3.89551 13.6032 3.89551 13.3875L3.89551 13.3872C3.89551 13.1715 3.72063 12.9967 3.50488 12.9967C3.28914 12.9967 3.11426 13.1717 3.11426 13.3875C3.11426 13.6032 3.28914 13.7781 3.50488 13.7781Z" fill="#1F5462"/>
</svg>
