<svg width="19" height="20" viewBox="0 0 19 20" fill="none" xmlns="http://www.w3.org/2000/svg">
<path d="M18.3219 0.478885H15.2067C14.9909 0.478885 14.816 0.653813 14.816 0.869524V0.979099C14.0987 0.922378 13.3743 0.722371 12.6143 0.511933C11.7053 0.260244 10.7653 0 9.81333 0H5.43258C4.23414 0 3.2645 0.631742 2.83878 1.68987C2.59631 2.29255 2.58568 2.91409 2.78721 3.37727C2.49009 3.59076 2.24282 3.8871 2.06281 4.25508C1.73772 4.9196 1.70534 5.67197 1.95371 6.25137C1.52799 6.58509 1.2652 7.06471 1.14543 7.52669C1.00512 8.06784 1.04496 8.59481 1.23216 8.99729C0.511464 9.28679 0 9.97756 0 10.7706C0 11.3153 0.211141 11.8163 0.594514 12.1812C0.964684 12.5336 1.45912 12.7277 1.98675 12.7276L8.33113 12.7274C8.97428 13.427 9.18886 14.4498 8.84943 15.2668C8.34039 16.4919 8.36902 17.4812 8.94518 18.5749C9.36113 19.3644 10.3634 20 11.141 20C11.2035 20 11.2645 19.9959 11.3236 19.9875C11.8027 19.919 12.1368 19.5889 12.2401 19.0817C12.2741 18.9148 12.2843 18.7181 12.2961 18.4903C12.3289 17.8582 12.3737 16.9925 12.9273 15.9319C13.2505 15.3127 13.3621 14.6534 13.4606 14.0716C13.6417 13.0014 13.7495 12.366 14.816 12.2494V12.3556C14.816 12.5713 14.9909 12.7463 15.2067 12.7463H18.3219C18.5376 12.7463 18.7125 12.5713 18.7125 12.3556V0.869524C18.7125 0.653774 18.5376 0.478885 18.3219 0.478885ZM17.9313 11.965H15.5973V8.37058C15.5973 8.15487 15.4224 7.97994 15.2067 7.97994C14.9909 7.97994 14.816 8.15487 14.816 8.37058V11.4654C13.0828 11.6226 12.875 12.8501 12.6903 13.9412C12.5971 14.4916 12.5008 15.0606 12.2347 15.5704C11.6023 16.7819 11.5503 17.7857 11.5159 18.4499C11.5057 18.6464 11.4969 18.816 11.4746 18.9257C11.426 19.1642 11.3141 19.1996 11.2131 19.214C10.7829 19.2754 9.95494 18.8153 9.63641 18.2107C9.16807 17.3217 9.14971 16.5803 9.57094 15.5665C9.94388 14.6689 9.8245 13.5926 9.3021 12.7274H9.78372C9.99943 12.7274 10.1744 12.5525 10.1744 12.3367C10.1744 12.121 9.99943 11.9461 9.78372 11.9461L1.98675 11.9463C1.66061 11.9463 1.35747 11.8288 1.13325 11.6153C0.906284 11.3993 0.781318 11.0993 0.781318 10.7706C0.781318 10.1579 1.30841 9.64797 1.95632 9.63391L3.90952 9.59141C4.12523 9.58672 4.29625 9.40804 4.29157 9.19233C4.28696 8.97955 4.113 8.81021 3.9012 8.81021C3.89831 8.81021 3.89542 8.81025 3.89253 8.81029L2.06594 8.85005C1.85429 8.65649 1.78108 8.18796 1.90171 7.72279C1.97027 7.45836 2.27239 6.59563 3.28118 6.59563C3.49693 6.59563 3.67182 6.42071 3.67182 6.205C3.67182 5.98928 3.49693 5.81436 3.28118 5.81436C3.05308 5.81436 2.84413 5.84397 2.65369 5.89733C2.51775 5.53157 2.55369 5.02952 2.76459 4.59837C2.87284 4.37712 3.09023 4.04894 3.47747 3.87889C3.48892 3.87471 3.50025 3.86995 3.51134 3.86464C3.65951 3.80467 3.83163 3.7678 4.03077 3.7678C4.24652 3.7678 4.42141 3.59287 4.42141 3.37716C4.42141 3.16145 4.24652 2.98652 4.03077 2.98652C3.84592 2.98652 3.66756 3.00808 3.49751 3.04996C3.39817 2.80542 3.39056 2.41161 3.56361 1.98144C3.70877 1.62061 4.18152 0.781279 5.43258 0.781279H9.81333C10.6591 0.781279 11.5075 1.01621 12.4058 1.26489C13.1902 1.48209 13.9977 1.70526 14.816 1.76249V4.85487C14.816 5.07058 14.9909 5.24551 15.2067 5.24551C15.4224 5.24551 15.5973 5.07058 15.5973 4.85487V1.26016H17.9313V11.965Z" fill="#1F5462"/>
<path d="M15.2061 6.22192C14.9903 6.22192 14.8154 6.39685 14.8154 6.61255V6.61282C14.8154 6.82853 14.9903 7.00329 15.2061 7.00329C15.4218 7.00329 15.5967 6.82829 15.5967 6.61255C15.5967 6.39681 15.4218 6.22192 15.2061 6.22192Z" fill="#1F5462"/>
</svg>
