<svg width="15" height="18" viewBox="0 0 15 18" fill="none" xmlns="http://www.w3.org/2000/svg">
<path d="M14.0047 15.1194L14.0025 17.1194L0.00252335 17.1037L0.00475406 15.1038L14.0047 15.1194ZM11.0123 8.33102C10.9787 8.99097 10.782 9.6323 10.44 10.1977C10.0979 10.7631 9.62115 11.2349 9.05222 11.5711C8.4833 11.9072 7.83996 12.0972 7.17969 12.124C6.51943 12.1508 5.86282 12.0136 5.26853 11.7246C4.5835 11.4274 4.00282 10.9323 3.60088 10.303C3.19894 9.67364 2.99405 8.93862 3.01246 8.1921L3.02148 0.112106L1.02148 0.109875L1.01232 8.31987C1.0451 9.26132 1.2991 10.1818 1.75374 11.0069C2.20839 11.8319 2.85091 12.5383 3.6293 13.0689C4.40768 13.5994 5.30006 13.9393 6.2342 14.0609C7.16833 14.1825 8.11797 14.0824 9.00625 13.7688C10.1878 13.3764 11.2134 12.6174 11.9339 11.6021C12.6544 10.5868 13.0323 9.36809 13.0125 8.12325L13.0215 0.123259L11.0215 0.121029L11.0123 8.33102ZM11.0215 0.116029L13.0215 0.118259L11.0215 0.116029ZM3.02148 0.107106L1.02148 0.104875L3.02148 0.107106Z" fill="black"/>
</svg>
