<svg width="20" height="14" viewBox="0 0 20 14" fill="none" xmlns="http://www.w3.org/2000/svg">
<path d="M2.01591 5.75875C1.21591 5.75786 0.515127 6.45708 0.514235 7.25708C0.513342 8.05708 1.21256 8.75786 2.01256 8.75875C2.81256 8.75964 3.51334 8.06042 3.51423 7.26042C3.51513 6.46042 2.81591 5.75964 2.01591 5.75875ZM2.02148 0.758753C1.22148 0.757861 0.520704 1.45708 0.519811 2.25708C0.518919 3.05708 1.21814 3.75786 2.01814 3.75875C2.81814 3.75964 3.51892 3.06042 3.51981 2.26043C3.5207 1.46043 2.82148 0.759645 2.02148 0.758753ZM2.01033 10.7587C1.21033 10.7579 0.50955 11.4571 0.508658 12.2571C0.507766 13.0571 1.20698 13.7579 2.00698 13.7587C2.80698 13.7596 3.50776 13.0604 3.50866 12.2604C3.50955 11.4604 2.81033 10.7596 2.01033 10.7587ZM5.52092 1.26266L5.51869 3.26266L19.5187 3.27827L19.5209 1.27827L5.52092 1.26266ZM5.50754 13.2626L19.5075 13.2783L19.5098 11.2783L5.50977 11.2627L5.50754 13.2626ZM5.51312 8.26265L19.5131 8.27827L19.5153 6.27827L5.51535 6.26265L5.51312 8.26265Z" fill="black"/>
</svg>
