<svg width="30" height="22" viewBox="0 0 30 22" fill="none" xmlns="http://www.w3.org/2000/svg">
<path d="M20.0143 22H2.32999C1.0452 22 0 20.9425 0 19.6427V2.35732C0 1.05746 1.0452 0 2.32999 0H6.0928C6.35022 0 6.5588 0.21109 6.5588 0.471464C6.5588 0.731837 6.35022 0.942927 6.0928 0.942927H2.32999C1.55916 0.942927 0.931994 1.57739 0.931994 2.35732V19.6427C0.931994 20.4226 1.55916 21.0571 2.32999 21.0571H20.0143C20.7851 21.0571 21.4123 20.4226 21.4123 19.6427V9.61704C21.4123 9.35667 21.6209 9.14558 21.8783 9.14558C22.1357 9.14558 22.3443 9.35667 22.3443 9.61704V15.3702L28.3532 19.3475C28.5599 19.482 28.7524 19.403 28.8253 19.3627C28.8983 19.3224 29.068 19.2014 29.068 18.9489V3.05112C29.068 2.79861 28.8983 2.6776 28.8253 2.6373C28.7523 2.59701 28.5601 2.51799 28.3501 2.65453L22.3444 6.64211V7.73119C22.3444 7.99156 22.1358 8.20265 21.8784 8.20265C21.6209 8.20265 21.4124 7.99156 21.4124 7.73119V2.35732C21.4124 1.57739 20.7852 0.942927 20.0144 0.942927H7.95679C7.69938 0.942927 7.4908 0.731837 7.4908 0.471464C7.4908 0.21109 7.69938 0 7.95679 0H20.0144C21.2992 0 22.3444 1.05746 22.3444 2.35732V5.51424L27.8424 1.86379C28.283 1.57727 28.816 1.55784 29.2719 1.80973C29.7278 2.06149 30 2.5256 30 3.05112V18.9489C30 19.4744 29.7278 19.9385 29.2719 20.1903C28.816 20.4422 28.283 20.4229 27.846 20.1387L22.3443 16.497V19.6427C22.3443 20.9425 21.2991 22 20.0143 22ZM8.40204 17.4299C7.96512 17.7141 7.43202 17.7334 6.97615 17.4816C6.52028 17.2297 6.24808 16.7656 6.24808 16.2401V5.75984C6.24808 5.23431 6.52028 4.77021 6.97615 4.51838C7.43208 4.26656 7.96506 4.28586 8.40204 4.56999L11.9266 6.86231C12.1431 7.00312 12.2058 7.2948 12.0666 7.51387C11.9275 7.73288 11.639 7.79625 11.4226 7.6555L7.89808 5.36318C7.68819 5.22665 7.49583 5.30566 7.42282 5.34596C7.34982 5.38625 7.18013 5.50726 7.18013 5.75978V16.2401C7.18013 16.4926 7.34982 16.6136 7.42282 16.6539C7.49589 16.6942 7.68819 16.7732 7.89808 16.6367L15.9551 11.3965C16.0911 11.3081 16.1692 11.1635 16.1692 10.9999C16.1692 10.8364 16.0911 10.6919 15.9551 10.6033L12.8891 8.60924C12.6726 8.46843 12.6099 8.17675 12.7491 7.95768C12.8883 7.73867 13.1768 7.67537 13.3931 7.81605L16.4591 9.81015C16.8611 10.0716 17.1012 10.5164 17.1012 10.9999C17.1012 11.4835 16.8611 11.9283 16.4591 12.1897L8.40204 17.4299Z" fill="#393D3E"/>
</svg>
